<mxfile host="app.diagrams.net" agent="Mozilla/5.0 (Windows NT 10.0; Win64; x64) AppleWebKit/537.36 (KHTML, like Gecko) Chrome/137.0.0.0 Safari/537.36 Edg/137.0.0.0" version="27.1.4">
  <diagram name="第 1 页" id="iDY63-YOSW8ISIU1iLzk">
    <mxGraphModel dx="1004" dy="559" grid="1" gridSize="10" guides="1" tooltips="1" connect="1" arrows="1" fold="1" page="1" pageScale="1" pageWidth="827" pageHeight="1169" math="0" shadow="0">
      <root>
        <mxCell id="0" />
        <mxCell id="1" parent="0" />
        <mxCell id="-nMGQMGpuMibSi9UWgEI-1" value="func1前半部分" style="rounded=0;whiteSpace=wrap;html=1;" vertex="1" parent="1">
          <mxGeometry x="260" y="340" width="80" height="60" as="geometry" />
        </mxCell>
        <mxCell id="-nMGQMGpuMibSi9UWgEI-2" value="func1后半部分" style="rounded=0;whiteSpace=wrap;html=1;" vertex="1" parent="1">
          <mxGeometry x="260" y="430" width="80" height="60" as="geometry" />
        </mxCell>
        <mxCell id="-nMGQMGpuMibSi9UWgEI-3" value="ISR" style="rounded=0;whiteSpace=wrap;html=1;" vertex="1" parent="1">
          <mxGeometry x="410" y="340" width="80" height="150" as="geometry" />
        </mxCell>
        <mxCell id="-nMGQMGpuMibSi9UWgEI-5" value="" style="endArrow=classic;html=1;rounded=0;exitX=1;exitY=1;exitDx=0;exitDy=0;entryX=0;entryY=0;entryDx=0;entryDy=0;" edge="1" parent="1" source="-nMGQMGpuMibSi9UWgEI-1" target="-nMGQMGpuMibSi9UWgEI-3">
          <mxGeometry width="50" height="50" relative="1" as="geometry">
            <mxPoint x="490" y="350" as="sourcePoint" />
            <mxPoint x="540" y="300" as="targetPoint" />
          </mxGeometry>
        </mxCell>
        <mxCell id="-nMGQMGpuMibSi9UWgEI-7" value="中断发生" style="edgeLabel;html=1;align=center;verticalAlign=middle;resizable=0;points=[];" vertex="1" connectable="0" parent="-nMGQMGpuMibSi9UWgEI-5">
          <mxGeometry x="-0.0552" relative="1" as="geometry">
            <mxPoint as="offset" />
          </mxGeometry>
        </mxCell>
        <mxCell id="-nMGQMGpuMibSi9UWgEI-6" value="" style="endArrow=classic;html=1;rounded=0;exitX=0;exitY=1;exitDx=0;exitDy=0;entryX=1;entryY=0;entryDx=0;entryDy=0;" edge="1" parent="1" source="-nMGQMGpuMibSi9UWgEI-3" target="-nMGQMGpuMibSi9UWgEI-2">
          <mxGeometry width="50" height="50" relative="1" as="geometry">
            <mxPoint x="490" y="350" as="sourcePoint" />
            <mxPoint x="540" y="300" as="targetPoint" />
          </mxGeometry>
        </mxCell>
        <mxCell id="-nMGQMGpuMibSi9UWgEI-8" value="中断结束" style="edgeLabel;html=1;align=center;verticalAlign=middle;resizable=0;points=[];" vertex="1" connectable="0" parent="-nMGQMGpuMibSi9UWgEI-6">
          <mxGeometry x="0.0463" y="1" relative="1" as="geometry">
            <mxPoint as="offset" />
          </mxGeometry>
        </mxCell>
        <mxCell id="-nMGQMGpuMibSi9UWgEI-9" value="&lt;font&gt;CPU自动保存的上下文&lt;/font&gt;" style="rounded=0;whiteSpace=wrap;html=1;fontSize=6;" vertex="1" parent="1">
          <mxGeometry x="415" y="350" width="70" height="20" as="geometry" />
        </mxCell>
        <mxCell id="-nMGQMGpuMibSi9UWgEI-10" value="" style="shape=image;verticalLabelPosition=bottom;labelBackgroundColor=default;verticalAlign=top;aspect=fixed;imageAspect=0;image=data:image/png,iVBORw0KGgoAAAANSUhEUgAAA9oAAAIGCAIAAAAk/mDwAAAgAElEQVR4Aezdj5NU1Z3///0HLlPiOlRSaGGVOtWmjFRYLSUVEMNqdaVAjbGWGBWxkpYNiz+CpoyJfkoZzbpq40e3kqWCm2IrRRgwArq2WXVn50Mi0RUcJYpEYdFxdITvtDY6NMnQ1fervtd33jnn3tu/Z3pmnlTKnL597rnnPu7tvq8+c/r2X4X8QwABBBBAAAEEEEAAgXES+Ktx2i6bRQABBBBAAAEEEEAAgZA4zkmAAAIIIIAAAggggMC4CRDHx42eDSOAAAIIIIAAAgggQBznHEAAAQQQQAABBBBAYNwEiOPjRs+GEUAAAQQQQAABBBAgjnMOTEKBY8eOTcK9YpcQQAABBBBAYDIKTLw4vmvXrm984xsDAwOT43AMDQ2lUqngs3/ZbLbB/Xr55ZdXfvpv/fr1VTZ19OjRnTt3jiXp7t27P/e5z02fPj2VSi1evDifz1fZ1WqqHTlyZNGiRdOnT587d+73vve9AwcO+Gu98sor55xzTurTfxdccMGhQ4f8OnZJqVTavHnzV7/61bFUmprnRhiGfX1955577po1a956661yuWwPRLPKH3zwwbx580488cRFixbddddde/fubaTllp7PjXSMdRFAAAEEJoTARIrjR44cuemmmyS4Llq06PDhw0KcyWQ+S7M1/H9nZ2d/f789SE899ZQE2Qb/e/PNN7/11lu25YRy3ZHLBsp169bpJnK5nChkMhldaAvlcjmfz7/66qvr16//7ne/e/rpp0v9ZcuWjdmg8o4dO4477jjZbjqdHhkZsT1ssDw4ONjV1SWNd3Z27tq1y2+wv7+/s7NT6qRSqaGhIb+OLhkcHLz88sul8uLFi53eKrhUiPtv3OHQrfiFqXluhGGYzWaV8dvf/vbatWvlg1P1/73lllt8T7vEnoHTpk3r7e21z9Zatq01fj7LK3So2f+c87bWfaQ+AggggEDrBCZSHO/t7e3o6NDr9Pe//30ZOWtWHLchQLdSR8EP+gnHr+7IZQNlNps9ePDgr371q5GREU2Hkv+ee+65//7v/x4dHe3t7U2lUtOnT4/bo+OPP/75559P6Gr1T5XL5Z6eHvlUc/311/vNbtu2TbsRmVNLpdKhQ4cqBpLIhNHb2ztt2jRp/6yzzhoeHvZ7bvUqxvEHH3xQexsEwZo1a+yQrYLbOn45cjf9jtklbXhuHDt27F//9V/lyN54442///3vbYebUj569Oill16qgA8//HAdL0zVLhaLTz311Bbv37XXXqubmDlz5s9//nOvStKC7du328+uzT2fR0ZG0um0dq9Zhcb/8taU40sjCCCAAAK+wESK4+Vy+b777tOLU0dHx9atW8MwJI5L+pQ8rekwk8kcO3bsiiuuCILg+OOPX7VqldLFFVasWGFDhn+6VLlk69at+sFp5cqVo6Ojzoo2YEWmBCeJxnU4ct077rhD6y9fvtxGZ+1GTXF8dHR0+fLl2qaeeNKagmuFyIIGRO1DxYKDELmzkY3YvWv6ufHWW2+dccYZso9z5swZHByM7EPdCw8cOHDKKadI+yeddNLevXvt2RJp6y9UbcfQr1nfEmcI3PYw8jBV2Q1Zlzhe98nDiggggMAEFZhIcTwMw8OHDy9atEivoKeeeur+/fsLhYIMo/7hD3/4yle+cuKJJ27cuPHdd9+1Y6uvv/76ddddp4OmQRCcd955zpQSe03VTdRRGPvR8b/927+VXbvjjjs0HWYymXfeeUfmonR1df3zP/9z5L7MmDFjwYIFd9111/bt2yMHm2s9s21cmz17duRka/sJKpfL+ZuoKb7Y1Q8fPrxgwQLd0+uvv94f5HznnXdsYK04Oh6G4cDAwOzZs7XZmTNn7ty5U7b78MMP6/IvfOELdqbTN7/5TT3lNCDa3iaXHYTInBfZgt27VpwbjzzyiO5X5MetyF5VuXDz5s3qefHFFxeLRfvCPPHEE+OmrJx44om6omo7hlqhwYITx5t7PhPHqzxVqIYAAghMGoEJFsfDMNy5c+fMmTPlajp9+nT9wmKxWLQXxcsvv1zG7YrF4r/8y798/vOf1wvwySefvHnz5lKp5BxFe9VfvXq1TfNDQ0PPPPOMzjY+//zz9+/fbyvs3r37tNNOk03YOH7kyJGrr746LkCkUqlTTz1VOxYEwYwZMxIqp1IpnSZuI9eqVaskdi9YsOCXv/ylNJjJZJ5++mmJTcuXL3/iiSd0Q7fddtv27dsPHjzoj1s7JrU+HB0dveqqq2RD06ZNe+SRR7QFneze1dWlY+dBEJx88snOLq9bt67KFOUn1Oeff/7444/XPY0s5HI5q1dNHA/D0A75z5o1q6+vLwzDY8eOLVu2TLeiKVD22m7FeSoMw4l7btij3NHR8cQTT+hRbrDgeK5du9aZSh754U02qh9EgyBQ7SpPJD2CVRbS6fQLL7wg3wZu+vlMHG/wLGJ1BBBAYMIJTLw4rlNW5s+f/9prr1nx1157bf78+XpBnT59+rJly04++WS7ZM2aNcVi0a6lZRvH/Zxno5UzNhaGob3q2zje9Curdsz25+6775bptp2dnXfeeafs73e+8x2ZoDJt2rSnn37ahpWETKMa9RW2bdum46YytKnt2A7rEYksZLNZ6xkEwamnnqqRfcaMGbqWauhW7EwVreYU6ovjOmXlqquuev/992WLzk7de++92pMwDO2z8+fPd24gM6HPjeRdswg1ld988039Gu7MmTNfffXVBuO4P3f87rvv1lN02rRpP/7xj/2/n1Rcsn379p07d+rnc+cEcx42cj5H6jmvDv3sEVmZhQgggAAC7S/QzDh++7Z3L/i//3N9rtDq3T58+PC///u/a6oeGRnRgerBwcEHHnjADr7qpfHyyy9//fXXtaY/Njxx43j203+ypxdddJEUvva1r82ZMycIgjlz5hw8eHAM4nixWLz44otl6/IZwJ4JNsDpQYksOPHFGb1OOEwHDx6UXY5sVhfWF8fDMBwcHOzt7dXJ6M7UKf+7sHG7LDPaxyaOt+jccIaxN27caI913WU7U+XSSy89evRog3Hc6cmxY8dWrFihZ8KCBQv0Bk1OzYoP4w6uNq6Fus/nuD4Qx+NkWI4AAghMUIGmxfHV/z705Xte/8q9++eveXPFv38wlhw2n+klsGLBjmFLb207zZqsMmaR6+WXX16/fr2N3ZlMJp/PP/zwwz/72c/CMByDOG4nivhBZwziy7p16/S4p1KpX/ziFzrMeeGFF+pTfhx/7rnnrr/++pq+lfj+++9/61vf0jaDILjsssv0I6KcUXI7altHyg8//HAYhhP93LB39/MPdx3vAPbjXBAE+qcP+8LcsGGDfqJ2Chs2bFDquAHjZ5991s5l2rx5cx39lFXG4HyO61sT4/jQ0NDjjz/+29/+tunz1uI6z3IEEEAAAV+gOXH83v94T7L4V/5p/7x/2n/e/W/e8MTYJXJ7tdbrccVCchyvuHpCBduyE7n8lG8nnQdB4FfYv3//+eefr5vTjGLTwD333HPw4EFJJxpKrrzySs0r+XzemTuuOdUWnNu3+adL8hK9K7zNUv4qDz30kO6OBFNnBPShhx6ygaPK0fF8Pm+nKt199926aXsU5OhYvY/vXSh/TrE3s5d1R0dHFVYx5Quv7733no349sudut1isXjZZZfpzkrhuOOO27Fjhx/H/UPf5ueG/das/5cBRai+YD/O2VOojhd4ZBw/fPiwPWTpdHrfvn0p8yNczpGKe6ivQdm1Fp3PCW721aET5ffu3XvfffcdOXIkYUXnqVwup3c+Pe+885Lvvu+sy0MEEEAAgSYKNCGO/9//PGSz+Lx79s//x30L7jtw0xP/O7+2Kd0tFAq33367vW3FypUrX375ZZvkjjvuuGw2K/ny5z//uX7j88ILL9TQec0118hV1oZm6WEdV/3IC7Zt2QZBmzDUxLmyOld6P7RpBRsolyxZkjyNNZ1Ob9q0KbK3dqE/J177WbEwPDx81llnxdna1XW2gAbTMAztnO9cLmdZqozjdmhcbrmjG7X3zjvjjDMOHjxo9ayAc5+QyGp6CDSRd3R0rF27Viex6Hbl+5o//elPFy1alEql5s6d+93vfvcHP/iB5J5JcG7Yo6YsdverL5fLZedenNpgHS9MP46Xy+U1a9bose7o6Ojt7bWnmT5VsaAdk71r0fmcQOd0O5PJ7N27V+4+OWfOnCpvBu/c3z0IAv1snLBpnkIAAQQQaIVAo3H8X/7f//fnLH7Pfsni83+8b/7d+87/pwP/5+mmzSN3rkByyZSvJOrV2uZgW99emyMri6w+VfF6nFzBdmMSRK4qTzubXON+fCcMw48++uiCCy4QwK6uLp0fonfFkZ9ItIevmjhu764YBIH+RJR03v5lQGYk2946R9P+yk9kNZvGBgYG/uZv/ubBBx+MzOLJdJPg3HjqqadUT6d6J+913LOvvvqqfn6WNtW5jhemfcnLFu0dmYIgWL58+ejoqD3NdEcqFrRjrTuf45RkudPtuXPn6p3ggyCYPn36T3/6U//OUU6bR44csTeNJY47PjxEAAEExlKgoTj+i+fycVn8vLv2nXfXvq/ec+Cf+v73p+wb3CvnCiSXTCeO27vm2RsITp8+3b8vhw3N0jd71f/KV77ijMTbe0jPmjVr+fLltsI111yjc1Jty5MgclV54OwPE15xxRVxPydkB6oXLVokf1u3Sp/73Od2795tD3fFOH7s2LEbbrhBU9Spp566b98+G0fsLJo77rjDuefJySef/LWvfU1Xt7/ykxzH7QmjqycXbEy0ez1B/3Kyd+/ek046SXZZ/uxQ5dniVCuXy9///vcdOk299rvaMmXI3nX0tNNOkxNGZxMNDQ0VCn8xEODcNl61/fuu6J/RpPDII49885vftB3r6OiwM85bcT47OP5D++qQu6PqnBPt6re+9S29/4/fgizZtm2brnjuuefqZ+O4+ixHAAEEEGiRQP1xfMN/vz//vje+cu/+T+aL/+W4uGTxBd37Fqze99UfH7j//zUhkTtXILnq+HFcr0YVCzY0C65NVxoF1N0mM39Sh+2ebXlsIpf2duPGjbrjNvk5X+W87bbbtmzZks1mjzvuOKkv83kamTtu9STyKp0t2F+wv+mmm+SpwcFBvb2dpDrrWTGO/8d//Ie9l042m926devs2bN37doVhqG93YoMvTtxPJVKPf/885G/8qP3Src/MaPadpeVPblgD8okODfsDCX5HGWPdfVlG+sVUJ39duyL0Tk9/MrODXCk/YTGtYXBwcHLL79c+yM3KXKmgrTifNYOxBXsq0Pmju/atcufBJ9KpeQlENdOGIZvv/32448/3tvb63wLOWEVnkIAAQQQaLpA/XH8onv2/jmL/+Mn88VljsonWbx7n2TxBXfuO/+ON9L37G+836VS6dChQ0NDQ6tXr9YLpB/H9TdlGhwd96/WNgG0Zxw/dOjQ2WefrTjf+c53nnzyyZ/97Gcyj8K/s4rdIxsT6ztYdgTa19M2bYTdtm2bLLeZRobMbeBw8pZtQTb09ttvn3nmmbLjZ5999pNPPinTHqZPn75hwwY7aV5n0dh9l/adyQzO74laPd072xNlTy5Y57GM4y06N+wu2E+herirLNjPYwqYzWb9cfEqR8el2sjIyOjo6MqVK7VNLehBjOxhqVTavHmz/e2wIAhuuukm/4uS9hxo1vkc2SW70L469Kuc/q1+5DvKP/nJT+xfimw7lBFAAAEE2kSg/jj+yPbh+d9/5ZNx8c+y+Hl3fzJBRbP4+Xe+cf4db5x3x+t3bnu3iXtrr39OHLeBwF6xbAbS1W1l6Z4+pX/Ltt22Aa7uOH7NNdc4fw23XzkNgsCvsHHjxi996Ut+jLD9yWaz5XLZflD5eBf0t05kZrMNlOJmW7BEdq+rL+vk7yAIenp6Ile03x476aST9u7dK9XsNwJlZN0evopxPAzDu+++W8LHhg0bzj33XOXSu6bIklWrVsmHE7vv2r7920IQBIsXL5abqDh/W9Akt27dOpkENWPGDDshSmdG+b+6qn8Q8L+k6x/69j83bBwPgkDOq8hDn7zQn8csr0H7krTHtMpyNpuNu9ekHsTIjtmbpQRB8MUvfrGvr8//ekDrzufIXulC++rQOB6G4ejo6D333OPjVDNxRRungAACCCAw9gL1x/EwDB/7Xf68778q4+J/zuKrP5mjolm8+7Gh5u6VvUI7cbyJd1bxf6ze/rpnR0dHV1dXXOqyQd/JK/6VstYlGiNsoJTpGXbCho3jMhlaE0ZnZ6f8Cdu20Nw4rsOEzqF/5513Tj/9dNnlk08+WeK4nUwSBIH84roNHBqXpTV7AqiG/JqjfIPz+eefnzVrlg9rb8Zn913bd0ZS77nnHr0Zs/0woxsNw7BYLK5Zs2b69OmRNzoMw9BG/FmzZu3Zs0dNJsG54exC3XE8DEO5P0kmk9F7BNkfMPKPZjVLstmsnU5jV8lms4VCwU43t2X7yfarX/2q/fkwqXbo0KFSqdS681lPksiCfXXYOB6GYblcfvTRR3VGuO6yve9nZJssRAABBBAYR4GG4vgniXzHJ4k8Lovfm3uv6ftm05gTx/XaU03BhmbppG25mhbi6tiWnbwSt0r1yzUL2kD5jW98Q+9KobNdr7jiCr3p9RlnnLF8+XLZinbPttB4HNfbvUX+bUGEX3nlFfupprOz84knnrCTSU4//fR33nknDEMbODQu+4dJNcrl8ubNm/UXFvW+bxb24osv1gmydt9t+4ODg3PmzJFZLnY01I/j5XL5T3/60z/8wz/oJpz5LWEY7tmzx34wWL16tW1zEpwbdhd0Xn59L/lsNrt48eLt27c3N46Xy2W5t+ns2bPtrJVsNmv/nqMHscqCnDOtO5+TDe2rw4njsqIzldy/oX5y+zyLAAIIIDDGAo3GcUnkC25+9ZM5Kn85Lt6KLG7vMq5/HK8vRmsqVXEbKKu8KkdWsy3bvBJZudaFGkBtoNRGzj777J///OfyMJPJ6A0lbrnlliuuuEKW6+0FbQuNx3F7FLSTaquFvXv3Or9jbwf1dTKJDRw2LjsnQMKG9u/fb7+dOW3aNDtmb/fdaf+lT/9ph6XgxHG5ifXmzZudwP21r31Nb2ehdyUX9rPPPvvQoUO22UlwbtjbVtrT3u5mleUdO3bs3LnTHhd/7vi7775766236tluCyeeeOLvfvc7O8I9NDQkc40eeuih2bNn79+/3zlFG4/jYRiO2flsGe2rIzKOh2E4ODg4b968IAj8T4m2KcoIIIAAAu0g0IQ4/kkifza/4KZXP/ni5mfzxVuUxZ005oyOd3Z2PvPMM3JJtr9oaH+fUv8M7aeHRi7PNhnYlp3I5d8/0d4hMQgCv8Ly5cvtCKsGUBtcdOsbN27U4CgJO5fLbd68OZ/Py7U5CIJ58+Z98MEnv5lqW2g8jvf09Gg3klt77733nBsey4rWzQYOJy47oSruVeR8NdOZ7m/33Wk/skFV/bir999/v/ygzL333huG4datW+0ninnz5g0ODjpZvLOz84UXXnBangTnhj1Mp5xyyoEDB5x9rP5hqVQql8v2uOipLo2Uy+UHH3xQzzG/EJc7BwYG3nvvkz/TOWdOI693e86MzflsJS17XBwPw/Dw4cPXXXfdzp077bqUEUAAAQTaUKA5cVwS+fmrXjn/jjcW3PF667K4c03143h/f78o2yvWd77zHbm3QLFYvPbaa/3wJ7+eaDOi/2VEGxScbOdMrrCx0olcTsJwVoyc5hHXgu3PxRdffPzxx8tXDzU42kxsf2NFbwpuW7CV6ztNd+zYobdNvOCCCz766KOEdo4cOfLtb3/bSVTXXXedzuWwh89GH+cE8D1lo/l8fv78+dr+8ccf/+yzz9r+2H132rfVtKyqcm97aVkknZ97DILgpJNOsjf2+fjrpPanhbTNuCOrFSxCe54bu3bt0rkl+jFP+19HwR4Xe3DL5fLatWvtxx49uNOmTdOp0nPmzNHvB/tbd+J4lXPH7Yd5HX2XueO6iVafz7ohKTgnRiMv3v3792/ZsuU///M//ZvGOBvlIQIIIIBA6wSaFsfDMHz0N8N/9+PX73uyyd/ddHbeXlOrjONLlixJp9N6/ZaCvbNHGIbOV76kZbtpGxSqj+NHjx594IEH9AeDnnrqKdtmNXE8rgXbn7vvvnvZsmUyDKbB0V6k165dq7uvNwW3LdjKTg+rfGi/1ubYRrbwwgsvaJKTvnV0dOhN2WzgcOKyPQFsYtOtHD58+JJLLtH9DYLghhtucH6WyO670762YwuqapvV2yaOjo7a3yGydYIguPvuu/UrobbNuCOrdSxCZByPa8HuXUvPjYcfflh3dvny5fppSneh1oLtuR5c54YhHR0dP/zhD/XkSaVS9913n3ajs7Nz06ZNkbf2q3jmaG9tzSpfGq07n7VXWnBOjCp7qKtrwf5hh58BUhYKCCCAwNgLNDOOj0HvDx8+vGTJEr30rl+/vlwu67XTDkvbK1Ymk7G30pPVL7vsMv1iXxiG9oZoeu8Ru0c2KFQfx20LkWXbz8jIFbmWM9Ukm81q3NTgqBfpw4cPL1iwQNH0I4HdI60ct7mKy48dO7Zs2TLdiv/nBdvCyy+/7P9qiax7/fXXf/xHDIfl1FNP1fvYzJgxQ7eiiU0bLxaLzncA/Enbjl7dcfzKK6/UL48Wi8Urr7xSO6aF+fPnDw8Pa/dqKjgI/s7GtWaPbOvOjZqOeFxXneVOz8Mw9G+nvWbNmhdffNHG8YGBAfs1zSAI5s+f/9prrzmN6xtFxRearVnNS6N157OzC/LQOTGq6aHfjn9zyYcfftivxhIEEEAAgTEQmEhxXL+cpFnn4z9e33///Vu3bpXh55tvvvmtt94StUKhcPvtt8vy9evXP/HEE/Jr0qlU6owzzrjttts+/PBD62unPuuXHW0FGxT8OG5ng9hPBbaFyLJzZa07cmnjvb29klxvueUWWbht2za9B7neusSJpPVd0XWjUti8ebMemmXLluknBKda3I0Idd1Fixa99NJLcXldq/mhyp8zEHf/QXs0q4njNp9JB1asWCEf544cOfKLX/zii1/8ou2YLXd0dCxduvR3v/td5Bi5g2Mftvm5ITeXlD3t6up68803befrK9vjcv/99/f19TmnwcqVK0dHR201OXyRP7157bXX2o/c9iAmv9BszYovjdadz3GGzolRsYeR7dibpstBJI5HQrEQAQQQGAOBCRPH/+d//icu8XR2dl577bU9PT07d+7UyZ1VFvr7+//4xz8643yRU59tAkin04ODgxL3f/SjH/3jP/6jDQ1jH8f9X5DRHxvasGHDGWecoenQpmS7R/Vd0Z0T1N5BfObMma+++qpToVwub9iwQWf6Sq9uuOGGxx57TAc79acELan23ynYUOV8e1La2bp1q9MHeWj3vWIcLxaLF198sd30rbfe+u677z766KMXXXRR5IRmW9mW582bd9ddd23fvj3us4rtrZO67M7aan7Z7l3rzg07A0pvieN3pqYltuc33nijcxMe/Qhkq+nhcz6ud3R0yD3stQM2ZFtM+RapVsvn85deeqketYSXRkvPZ+2PX3BOjIQe+uvaJTt27NDXHTdDtDKUEUAAgTEWmDBx3JlxceaZZ9YUg/Ti6hQkRtixbfk1bP8w2ASQTqeHh4ftNds2q/nAb8Rf4lxZbUrwK9sltj926wnladOmPf3009qIbaHuK7q2JgWbeORHebTCkSNH9N7n2skbbrhBxoyfe+45vXX6mjVr3nnnnZrieF9fn73/jGTxtWvXxs1mtvte8XiVy+Xvf//72ufVq1ffeOON+tAv/N3f/Z2/p7baunXrlCWh0M7nxqFDh84++2zZqZo+fybsr/MXG+fHrWQWk6wed/jsTU6WL1/u/DnCnpz2heZ8b8QeqYT7lrT0fE5Wck6MRl68+Xw+l8u9+OKLjlVyB3gWAQQQQKC5AhMmjusPoQdBIAM5fgJzrqMVH+rPNK5atUorO5lVuW0CkMkq9ntsunoQBHYEWlePKzhXVpsS4laR5bY/dut++ZxzzpGPLs4cG9tCI1d020+b0pwfoRwdHZWfstce3nrrrTYEvPjiiyeffLLchMSynHbaabt379Y/d+itKu1kFed3fzo6OhKyuBP7KsbxMAz1Vi333XdfqVSyu6m7EwTBnDlz9NfU33zzzauuuso+K2XnKFg9p2wR7M461fyH9sj6HbBL6j431q1bp+04n7v8/lS/xPY8m82Ojo4uX77cfsdXmrLVnMNXLBZ//OMfp1Kp/fv3O9uNi+PHjh3Tu/LrTmlh7dq1TjvysKXnc+QWdaFzYjTrxavtU0AAAQQQGGOBiRTHZQzb/tLKhx9+uGbNmtNOO02vnTUVNBiVSqVNmzbJ320XLFig38+zB8MmAFnR3tpPt3v22WcPDAzYFZPLzpW1FXE8m8329vaecsopvb29tjN2j5p4RX/iiSf0DxdXXXWVDdz6K/RxcblQKEh9y+LkrbhQpTcanz59+qOPPho3Li4Cdt+d9i2RLe/YsWPNmjW6O3ZGvnx3sK+vz7+hx9DQ0A9+8AMd+I/7sGc3pGWL0KI4Xt+5sX//fr2TY9zdvnUvairY4yKvhYGBgV27djmN2GqRh+/o0aPOKsm3yLz33nv1JWwLl1xySeS7gTTe0vPZ778ucU6MJr54dRMUEEAAAQTGUmAixfFisbhq1arIsDsyMjIwMJDL5XTOdDWFV155xVoPDg5ecskljzzyiF2o5dHR0YMHD8oYbT6fL5fL9tuiN9544/r16+v4m69zZa0+jmvHqiwMDw9rlJRV3nrrrZtvvlm/7VplOxWrHTt2TO/6N23aNMdTkH/zm98ktyMj0KLt3ON5ZGRER8rlZxe1qa1bt5511ll+etMKWqiY57RmXGFkZGTRokXz5gezds0AACAASURBVM1bv359Pp+PqybLS6XS3r1777jjju9973v2y4XJa7XnuTE6Oqqj/v787OQ9qvisPS4JrwVbLTKOR24o7oNcGIa9vb1f+tKXMpmM3pP0rrvu6u/v9z9fOS239Hx2tqUPDx06dMEFF+i9hvRL21qBAgIIIIDAxBKYSHF8YslO5d7a21zE3dukFT7lcrlifmrFdqdOm85vHkX+vNHU0WBPEUAAAQQQaIoAcbwpjDSCAAIIIIAAAggggEA9AsTxetRYBwEEEEAAAQQQQACBpggQx5vCSCMIIIAAAggggAACCNQjQByvR411EEAAAQQQQAABBBBoigBxvCmMNIIAAggggAACCCCAQD0CxPF61FgHAQQQQAABBBBAAIGmCBDHm8JIIwgggAACCCCAAAII1CNAHK9HjXUQQAABBBBAAAEEEGiKAHG8KYw0ggACCCCAAAIIIIBAPQLE8XrUWAcBBBBAAAEEEEAAgaYIEMebwkgjCCCAAAIIIIAAAgjUI0Acr0eNdRBAAAEEEEAAAQQQaIoAcbwpjDSCAAIIIIAAAggggEA9AsTxetRYBwEEEEAAAQQQQACBpggQx5vCSCMIIIAAAggggAACCNQjQByvR411EEAAAQQQQAABBBBoigBxvCmMNIIAAggggAACCCCAQD0CxPF61FgHAQQQQAABBBBAAIGmCBDHm8JIIwgggAACCCCAAAII1CNAHK9HjXUQQAABBBBAAAEEEGiKAHG8KYw0ggACCCCAAAIIIIBAPQLE8XrUWAcBBBBAAAEEEEAAgaYIEMebwkgjCCCAAAIIIIAAAgjUI0Acr0eNdRBAAAEEEEAAAQQQaIoAcbwpjDSCAAIIIIAAAggggEA9AsTxetRYBwEEEEAAAQQQQACBpggQx5vCSCMIIIAAAggggAACCNQjQByvR411EEAAAQQQQAABBBBoigBxvCmMNIIAAggggAACCCCAQD0CxPF61FgHAQQQQAABBBBAAIGmCBDHm8JIIwgggAACCCCAAAII1CNAHK9HjXUQQAABBBBAAAEEEGiKAHG8KYw0ggACCCCAAAIIIIBAPQLE8XrUWAcBBBBAAAEEEEAAgaYIJMXx999/f/fu3aOjo41s6ejRoxs2bNi+fXs+ny+Xy400tX79+pUrV95+++2FQqHWdgqFwr59+x5//PFf/epXxWKx1tWpjwACCIyLwOuvv/7ee+/ZTZdKpR07dhw+fNgu/O1vf/v222/bJZQRQAABBCaKQFIc7+npCYKgo6PjwQcffOCBB1Ym/rv55pvfeustf7cPHDhwyimnBEFwyimnHDhwwK9Q/ZJMJhMEQSqVGhoaqn4tqbl58+bg038zZ8589dVXa12d+ggggMAYC5TL5Q0bNkyfPn327NkDAwOy9QMHDsyfPz8IgpUrV+pYycGDB+fMmRMEwezZs1966SWpWS6X8/n8kPfv6NGjhULh9ttvj3tHf+qpp8Z4T9kcAgggMMUFYuN4uVxevnx5EATTpk177LHH0um0xNm4/3Z2dvb394dhKGPY+kZ/ySWXyCqzZs1avny5Lo8srF+/Pu54jIyMSB+S4/jRo0cjPzlcffXVxx13nPTk/PPP97f+wAMPHD16NG7rLEcAAQTGWKBYLF522WXyrrVo0SIZDj98+PCFF14oAyVbt26VLq1du1aqLV68eGRkRBbqe6Y8pf/N5XJDQ0OpVEqXOIVsNjvGe8rmEEAAgSkuEBvHh4eHzzrrrCAI5syZs3//fonCHR0dXV1dqb/8N3369CAINI7LGLbz/l7lw0wmE4bh0aNHvQGdof37959//vlBEJx22mm7d+/2K8hFKO4KVLED6XRaL2NT/Jxg9xFAoE0EBgYGZs+eLW9fOhz+wgsvdHZ2BkFw5plnDg4Ovv3222eeeWYQBDNnztSh8TAM494MieNtcnDpBgIIIKACsXG8t7d32rRpQRCsWrXqww8/lDgemVklfzcxjudyuYrp2a8gIzr2CnTyySf/5QeHiEcnn3yyNBW5a8pEAQEEEBgXgZ07d86cOXP69OkbNmwYHBzcsmXLo48+etFFF33hC19Yv379li1brr32WnkTu+qqq7Zs2fLUU0/J12P0zfBLX/rSxo0bb7vtNqlm4/iVV16pQxvPPPOMpHxGx8flQLNRBBCYygLRcbxcLq9atUpmqjz99NP6th6ZWZ04rprHjh1bsWKFXADWrl2ryysWmhLH9ePBa6+9duGFF+pfdcMwfPHFF6+++urf//735XK5v79frkCRu1axq1RAAAEEWi3w2GOP7dq1KwzDat4bdTqf876t69o4Ln+QlP7rmyFxvNUHlPYRQAABRyA6jr/zzjunn366fm9S39ZllGXLX/6TiYwaf3UDzz777PHHHy9/Ud2zZ4+OwcQV9NYretm47bbbdFO//OUvv/jFLwZB4PRBh3zkEnLkyJGrr746lUqdc845zzzzzA033CCfB/TPuDrzMgiCxYsXb9y48ayzzkqlUldfffWRI0e08xQQQACBdhPQ90Z5W4v8b01xnNHxdjvE9AcBBKamQHQcX7dunbzRyzu7xvHId39Z6MRxm3rXrVuXzWYT1pWndHxaLzm5XE6PyuDgYFdXVxAEl156qf3OpVa2IzpDQ0Pf+973Ojo6pOXp06f/9Kc/lZsMHDx4sLe3V5K9PLt48eLXXntNN0QBAQQQGHcB511XhrH17e6aa67RoQopbNy48Utf+pKOodi54/LWquva0fHIt2X7XjruDnQAAQQQmAoCEXE8n8/LjbT0nd25MES+g9s4Xi6X16xZI9Xmz5+fz+cbj+NPP/20zGVfsWKFPTB6jdFLyEMPPWR7ePnll7/99ttPPPGETErp7Oz89a9/PTo62tPT8/nPf15r3nXXXbZZyggggMA4Cjjvuk4c17c77aHW90fH9V1OCsRxRaOAAAIItIlARBzfuHGjvn3rO7vtrmZr/5Ig1bZu3aoj03IVGRkZ8eeovP766xdddJFsq7Ozc/PmzfI7QZqwdXT82LFjy5Ytk5pf//rX7Y9iaGXtzFtvvXXGGWcEQfDlL3/5t7/97R//+Mc1a9Zof+QGYWvWrBkdHf3www9livysWbP27Nlj95EyAgggMI4CMu/u1FNPlfe9FsXxCy+8UEfZs9ms3A1W30vHcffZNAIIIDClBCLi+B133GHj+Ntvv33w4EEbplevXi0VVq9ebZcPDQ2NjIzIfQC0BbmKOKblcrm3t3fWrFlS7atf/ar9CSFN2BrHbb6XMfvf/OY30qZWtpeQxx57rLe3t1QqvfbaazrSf/bZZ//mN7/Ru4bNnz//tddeK5fLfX19PT09Tg95iAACCIy7gN4g3InjM2bMcG4U1dXVJYMOOoai4+UJd1ax7898lXPcDzcdQACBKSsQEce3bdsWBMGMGTMk+OZyOZnmoQk7oZDNZm+66SZbwb7dq/JTTz0ldaZPn/7AAw/ob8tJBU3YEsdtvpcf+JQR7p/85CelUkkr2zgehuHQ0JB+jzMIgm9961vvv/9+GIbvvffeokWLtIfLly9/8803tWMUEEAAgfYRiIvj+g7mF/w47s8d1+R977336s7qQue9VCtQQAABBBBokUBEHN+1a9fixYt/+MMf1hfHe3p6JM3LVO9MJnPLLbc4AzknnniixnH71C233GJv5vXEp//0w8CiRYs++OCDtWvX6syT5cuXb968WZqSS8jo6Ojvfvc7/SlQuVfj7bffPjg4qAP5Bw4cuP766+1l7Mtf/vLGjRvz+XyLlGkWAQQQqEOg1XHcvg1qmThex5FiFQQQQKARgYg4Pjg4uHv3bpkgnkql7GSVJ554Qu5dqG/cp5122vPPP69Jd2RkZPfu3cuWLfuv//ovidGZT/9p/eSC8wfZ66677q//+q9lldmzZw8MDIRhWC6XH330Ufkp0JkzZ95+++1SQS4hduJ78rb8Z9etW9cIJesigAACzRWwcbxcLv/pT3+yt0yRgXD9Mo/O7pM+6GQVf3R8165dOszhvxMSx5t7EGkNAQQQqCgQEcdlHY3jQ0NDsmTv3r3yFUnn7fvCCy+0360sl8ulUkn/7tnI6Hgul5NZ4/PmzbOTy8Mw/PWvf/2FL3xh586dzmQVvQLJXRGdrkY+lJpyB5iKXlRAAAEExkxA4/gVV1xxyy23LF++PAzDDz74YN68eUEQnHHGGQcPHqwYxzs6Orq6uvRvkrlcTmYkym8vrPzs3ze/+U35kyZxfMyOLxtCAAEERKDaOL5r165UKhUEQWdn59e//nXJtZdffvnMmTNlTktfX5/cF0XatXHct9YMHTmzXJ/N5XLlcvkPf/hD5A/0HDt2zM5s0UvIvn37hoaGtJENGzbo4L0tbNiwQfYil8sdPHjwjTfe8PvJEgQQQGAcBTSOy5vVBRdc8NFHH7366qvyxrto0aIjR47YOD4wMPD3f//3zz33XKlU0rEJZxgil8vJ9/U/97nP7d69W/dO37T1vVSfooAAAggg0FKBynF8cHDw3/7t32RyyMffofz4huL333+/vL9ns9kHH3xQ3+svv/xy/VqkvrMnB+7kZ52/vUZCaOx2LiG6PK6RihUiN8dCBBBAYMwE/Dj+wQcf6L2tbrrppjAMbRzXN96Pv1WvcXzWrFnLly//bBB85dNPPz1nzpwgCObNm/fBBx/ovugMFue9VCtQQAABBBBokUDlOL5kyRIN3GvWrCmXy/run81mS6XSfffdJxWmTZv2yCOPSEf1quAH7nK5vH79elnFf9YOeMcl6UKhIOPcg4OD3/3ud6Wphx9+2Bpp2l68eLFeh2xh8eLFsmLcVmxrlBFAAIGxF9ixY4fcCzwIgm9/+9vvvvvujTfeKG9cHR0dvb29No7/6le/+sUvfiHPbtu2TeO4/uCxfPdG37Fvuumm0dFRuY/twMDANddcI+sSx8f+QLNFBBCY4gKV4/izzz4rP0WxZs2aUqlk3/3lXbtUKv3kJz/p6Oi47LLLisWigPpx/MCBA3qbQnnTD4LA+YlNWVeTdFxQdn53U26fIlcmPZzaiG4rrhC3FW2KAgIIIDAuAr29vXIjqVtvvXXbtm32h4RXrlwpt4jV8RF9i3Nmodie631jjz/++Oeff95/W542bZrzXmpXp4wAAggg0AqBynH847+W9vT0PPnkkzo1XN/97SDK66+/fuDAAe2iH8c/+uijCy64QC8YQRBMnz498n1fk3RcULYjRtKgXpm0A9rIiSeeaO+lqGX7xSZdiwICCCDQPgLlcvn++++/++67R0dHDx8+rL+ZcMstt+jYx/PPP+/c8MqOjDj7Mjg4KF8Dveqqq0ZHR48cOaJtynvp17/+9ZGREWctHiKAAAIItFQgNo6vW7culUpdcMEFhw4dcnogT6VSqYQ7A77yyivnnHNOKpWSW4lLC+vXr5fpIj/60Y+2bNny9ttvOy3Lw5dfflmqvfzyy5EVjhw58utf/1p/2/mNN97Qjwpav7e3V5J3ZOIPw7BiBW2KAgIIIDBeAqVSSd/fdu/efdlll73wwgu6RHr1+uuv/+hHP1q5cuWNN964ZcsWTeqRfX7//feXLVu2Z88eeXb9+vVr1qyRt9O9e/fKn0AjV2QhAggggECLBGLjeIu2R7MIIIAAAggggAACCCCgAsRxpaCAAAIIIIAAAggggMBYCxDHx1qc7SGAAAIIIIAAAgggoALEcaWggAACCCCAAAIIIIDAWAsQx8danO0hgAACCCCAAAIIIKACxHGloIAAAggggAACCCCAwFgLEMfHWpztIYAAAggggAACCCCgAsRxpaCAAAIIIIAAAggggMBYCxDHx1qc7SGAAAIIIIAAAgggoALEcaWggAACCCCAAAIIIIDAWAsQx8danO0hgAACCCCAAAIIIKACxHGloIAAAggggAACCCCAwFgLEMfHWpztIYAAAggggAACCCCgAhFx/A/8QwABBBBAAAEEEEAAgTERiIjjGtUpIIAAAggggAACCCCAQEsFiOMt5aVxBBBAAAEEEEAAAQSSBIjjSTo8hwACCCCAAAIIIIBASwWI4y3lpXEEEEAAAQQQQAABBJIEiONJOjyHAAIIIIAAAggggEBLBYjjLeWlcQQQQAABBBBAAAEEkgSI40k6PIcAAggggAACCCCAQEsFiOMt5aVxBBBAAAEEEEAAAQSSBIjjSTo8hwACCCCAAAIIIIBASwWI4y3lpXEEEEAAAQQQQAABBJIEiONJOjyHAAIIIIAAAggggEBLBYjjLeWlcQQQQAABBBBAAAEEkgSI40k6PIcAAggggAACCCCAQEsFiOMt5aVxBBBAAAEEEEAAAQSSBIjjSTo8hwACCCCAAAIIIIBASwWI4y3lpXEEEEAAAQQQQAABBJIEiONJOjyHAAIIIIAAAggggEBLBYjjLeWlcQQQQAABBBBAAAEEkgSI40k6PIcAAggggAACCCCAQEsFiOMt5aVxBBBAAAEEEEAAAQSSBIjjSTo8hwACCCCAAAIIIIBASwWS4nixWCwUCvl8frj1//L5fKFQKBaLLd1bGkcAAQQQQAABBBBAoK0EouN4qVQqFAqtD+ERWygUCqVSqa2M6AwCCCCAAAIIIIAAAi0SiI7j45XFJZ4XCoUW7S3NIoAAAgggMIEERkZG0ul0Z2dnf3//BOo2XUUAgZoEIuJ4sViMGLUe20XMWqnpKFIZAQQmq0Aul0ulUkNDQ3E72N/f39nZmcvl4ir4y7PZbMV4NzQ0lEqlMpmMrl5xrUwmE3z6TzvjNOI81JZrKmSz2SAIbMcSVhecdDo9MjLiVMtkMhURnFXG5aHsbzabrWnrDrXzsKamtHJN8rpWfYVMJhN51KS1iqdifRtlLQTGUSAijo/v0DgD5ON4NrBpBBBoN4FNmzZ1dnYmpM+WxvF0Op1KpSReawaSLa5atSqVSkn+lv9qZHzjjTeE0UmBzkOHupq0l8vlZFvVJGkZV478MCO7oB12eqKfK+zeVVnWjyJOm/U91P1N3rq/UYfaeeh0punysrk43mR86Rtx3DlGPJz0AhFxfGy+u5k82p7P5yc9PTuIAAIIVCOQzWYjM6Ws29I4nvn0n2xd47hEpX379jnD5/6+OCnQeRiGoQ2+Cfto9zSdTsumE0ZPZUN+hNVVJID6FRI+9oRhKGv52dff8aYs0Swe1yupEOnmUDsPWycvOy6bI4435TSgkSkiEBHHk4PymD07RQ4Au4kAAgjUJGAjrB8ogyCoOHKswTphuxrgdCxT1rrzzjulfa1QTSNSR1axfXaCZsJHC3lK87Q0pQ+dPkT2TQdch4aG5s6d60zFjlzFaXYs47hE7UwmIzvuQOlngyoFxkzeHmiN4/JnCu2qnlFhGMpTQRBoZWlBD5ZzCORhNSdw5IosRKBtBYjjbXto6BgCCExpAT92yzhoJpOxA6JOhLXPxo0B20DslDXK23gq2ejOO++UypKcbAX/OPmdlwnuyQPqkkH94Wcni8vmIhfKU5F904SnBdvtyFVsBU3Afvecao0/1CwuTTmj4Bph/YzuDHvL8RpLeemwYGrCjozjeuLJBzxHNfIYKSxxXCkoTBoB4vikOZTsCAIITFoBiZ4Sv2zgDsPQxnEnU8aN5salGbvcaUrCqIb1MAz9Cr6+U8d56Ne3HdBnZS8io6c0aD+cyFqRG5KEt2nTpiAInPBX5e7EeWpXm1KQ8OrsrxxljbCRu2C37gg4D21NKTdL3v8Ylk6nh4aG0p/+k1lG9kOdcwJrx5w4Lv3XfB/ZW12XAgITUYA4PhGPGn1GAIGpJWBvA5IQx200TxjNjUszdrkf4OyzVeZXpxEJmn56lmMplXVKg53JoOk5m806OVXHgzWrxfVNEt6SJUvsJvQ0sh94dKFTGJs47mxUH9qk6yNoNSmMl7zduh4R6YxOoxJqfdb+ScTuo372yGQy0oKu4pyKzr7zEIGJKFBDHO/r6zvhhBP0FRIEQXd3t04l958NgmDp0qVSwX9Wn9IWnMJE1KTPCCCAQNMFnKSYEMedTcfFx7g0Y5drOHZunyKXgFQq9dJLL0U+Ze9C6IRCHQq11xFbtkldOm+j88jIyKpVq2z7ur9CpIP3/nYltWtr2U//6eraseSYK12SDms0tI00vWy3qCPidqEVs1v3BYTIatuybacReemDbF2IJG0HQaD4CXFcd6Hi6LjtfBAEtv/aCAUEJpBAzXG8p6dHcnN3d7eTyHV5V1fXnj17bLyWOK7rykO/ml1lAiHSVQQQQKBFAv6I8ljGcY2nEqo07/oj0DbKK4UfCvWphIK/y7ay9EQ7Zp+SHJnNZiO3qwlP2td0Ky04GdE2q2VpP5fLSaFFEdCOEFcM/bKnmk21fqSA7khcoXF5aVm2rp2RZhPiuD2vpAU9WJENRp5scTvFcgQmhED9cXzPnj1dXV0LFy4cGBiwMbq7u9vP2U4cHx4e7unpiUzz2tSE4KOTCCCAQEsFJJxJ+pQgaOOa5jAtaOhp4mQVza+dnZ16G3In8EUmJK0jN0xsFlQ2m12yZEnCTyPJdtVEC4oje2RTYE1xXD+NOJneTrDRjdZU0AgbaSWd1Kk7kXVk4XjJ263rvhDHE44UTyEgAo3GcX/OSZVxXAK6ne6iQVwKHCEEEEBgigvIKKzkuXPPPVfuByej47lczvkxTgk9dthYR3Mdxsjo7HxZU/NcGIayrSVLlkhPJMXaCs66sjnJjrKKJEiN9XEJtVnjzU7fpD+RA64a0GuN49KmCGsjjnPTH1YZx8dRXnZZ/KuM485fe6SFyIOlDcadwE0Hp0EExkyg/ji+dOnSjyds6fwTDdNVxnEZHfdX13bGjIANIYAAAm0oILMy1q1bp1O0JdRKfJGp2zZ8+4HSpvm4BOws1wFjTbQarSQD5XK5VCqlv8WjHbAJSUdDnZ8K0uX+T9ZLoHfieE39t2PG2nl7WJ2EJx8zdCa6r2fXlXLkxxvZlrr5a9WxpOLnFueo6X27VXi85GVn9ZyRh9orOe5CbX/V1R47WcU5WE6D9mSrg5dVEGhDgZrjuL4L+DNSJElXE8dlaNwfWdcsPjw83IZYdAkBBBAYM4FMJpPL5TRZ6m9zalJxhhW1gvYwMj5GjmTLKjblyHblPiSSufVZ+RkdyeXJA5baeWnfiWXaT926E8edCpEPZR+d8Wlnu7Kiutl2Vq1aJb8HVHcc18br6LztSTVl6aQfXv11HYExk5eeyNb13HC27lM79Z3v3erUIG1QT0V/x1mCwAQVqDmOy3h23Pc4h4eHE+K4RvnIYXWbxYnjE/R8otsIINBcAc1VkmnuvPNOuYXzyMiIDWdarZqtV5NmpEF7QwxnLbv1uIjv9Ep2wV4InHKtiTYyi2t605F7MYmM48rlZ0R9SgtxH2+0QisKmUxGY6g1lz+exEXz8ZIXAdm6fKd27ty527dv15NWb2KjOxV5vORgyRi/3sZHV3FOxVaw0yYCYyxQZxwfGBhYuHBh5AB5QhxPmJriZHHi+BifB2wOAQTaU8DJVc5DHSC3NyavuCPVpBlnQ37gdgbjI9t0GnFGSZ1+Og3qs9KIzirR5fZLrrpQCs52ZWFyHE9Ot9LCGMdx6ZK9i5+N42+88Yb0R2eqWARHYMzkrb/eaNzZuv/Jxy6xn9l0CpDsDnHcHmLKk0ygzjiecGsU4vgkO0XYHQQQGEcBJ1c5qVGelTFmDSsVexsZnZ21nO06cdwJWM6z2pTTiL+W1pQWEkbH9X4yuVxOE1vcLjvbla1MoDiuh9UZ4LdxXOkiQ7kjMGbyemjs9KHkresk/i1btqTT6YRPF3q4qzmB1YcCAhNCoP44HjdAThyfEAeeTiKAwIQQcHKVDodL5+NyW/KuVZNmtGVnPomMUvu5MLJNp/PJsSxudFz3RaOedClunkbk5Ad/OrI2K4XI/vt1/DsbOnUafyhoNs5qmwnD85Enhqb5sZGXrehGtdtxn9akgqyV8ElMDyhx3JJSnmQC9cdxZ4Bcvp3pvHHrlzX9+477s1OcJZMMmt1BAAEE6hCwidb+TV/n4MrtDuVuJ5F3LPE3Wk309NfSJZHZLrJN6bymKFnRuUzYh8mZTDogbfpzV7R7mt5sy1KOzLhaP+5ZbTkhDWudphcctMiw6290vOT9nsgSZy+cQxN33OWEdyrHPdTTLK4PLEegnQVqiONOXG71w3ZWo28IIIDA2AhoHJdAo8HFnzntL4nrYWR0jqvsL5fbkMsNSfRZp02dQaEd1p/IiUu9FUfHdVs6vSEumyqaXcVOVtFMr9nO9tOuZcvjEsdtB6opj698NT2kDgII+ALEcd+EJQgggEC7CGiy7O/vT6VS/f39siQu1EooZ6SwXY4f/UAAAQSqEIiI4/l8vtUj3xXbz+fzVXSeKggggAACCCCAAAIITGyBiDheKBQqxuVWVygUChPbld4jgAACCCCAAAIIIFCFQEQcLxaLrU7bFdsvFotVdJ4qCCCAAAIIIIAAAghMbIGIOB6G4fgOkDM0PrHPKXqPAAIIIIAAAgggULVAdBwvlUrjlcgLhUKpVKq6/1REAAEEEEAAAQQQQGACC0THcdmhYrFYKBTG5pud+Xy+UCgwR2UCn0p0HQEEEEAAAQQQQKB2gaQ4XntrrIEAAggggAACCCCAAAI1CBDHa8CiKgIIIIAAAggggAACzRUgjjfXk9YQQAABBBBAAAEEEKhBgDheAxZVEUAAAQQQQAABBBBorgBxvLmetIYAAggggAACCCCAQA0CxPEasKiKAAIIIIAAAggggEBzBYjjzfWkNQQQQAABBBBAAAEEahAgjteARVUEEEAAAQQQQAABBJorQBxvrietIYAAAggggAACCCBQgwBxvAYsqiKAAAIIIIAAAggg0FwB4nhzPWkNAQQQQAABBBBAAIEaBIjjNWBRFQEEEEAAAQQQQACB5goQx5vrSWsIIIAAAgggRpy7nwAAIABJREFUgAACCNQgQByvAYuqCCCAAAIIIIAAAgg0V4A43lxPWkMAAQQQQAABBBBAoAYB4ngNWFRFAAEEEEAAAQQQQKC5AsTx5nrSGgIIIIAAAggggAACNQhExPGP+IcAAggggAACCCCAAAJjIhARx2sI81RFAAEEEEAAAQQQQACBBgSI4w3gsSoCCCCAAAIIIIAAAo0JEMcb82NtBBBAAAEEEEAAAQQaECCON4DHqggggAACCCCAAAIINCZAHG/Mj7URQAABBBBAAAEEEGhAgDjeAB6rIoAAAggggAACCCDQmABxvDE/1kYAAQQQQAABBBBAoAEB4ngDeKyKAAIIIIAAAggggEBjAsTxxvxYGwEEEEAAAQQQQACBBgSI4w3gsSoCCCCAAAIIIIAAAo0JEMcb82NtBBBAAAEEEEAAAQQaECCON4DHqggggAACCCCAAAIINCZAHG/Mj7URQAABBBBAAAEEEGhAgDjeAB6rIoAAAggggAACCCDQmABxvDE/1kYAAQQQQAABBBBAoAEB4ngDeKyKAAIIIIAAAggggEBjAsTxxvxYGwEEEEAAAQQQQACBBgSI4w3gsSoCCCCAAAIIIIAAAo0JEMcb82NtBBBAAAEEEEAAAQQaECCON4DHqggggAACCCCAAAIINCaQFMeLxWKhUMjn88PN+JfP5wuFQrFYbKzDrI0AAggggAACCCCAwOQRiI7jpVKpUCg0I4RHtFEoFEql0uQhZE8QQAABBBBAAAEEEKhXIDqOty6LSzwvFAr1dpj1EEAAAQQQQAABBBCYPAIRcbxYLEaMaTd7EbNWJs9JxJ4ggAACCCCAAAII1CsQEcdbPTTOAHm9B4v1EEBgigoMDQ2lUqlsNqv7n81mgyDI5XK6pKWFkZGRdDodBEEqlRoaGmrptmgcAQQQmGoCEXG8Wd/dTB5Pz+fzU82a/UUAAQTqE8jlck74tnE8m82m0+mRkZFqGtdgHUT9y2Qy2ohsVGvJJkZGRoY+/ZdKpfQpKVTfB90EBQQQQACBMAwj4nhyjG7isxwABBBAAIGKAhKgnbBr4/j27dtTn/6z49ZOmNbobIfY7ab9AXj/M4DW9ytnMhmnh1qZAgIIIIBAsgBxPNmHZxFAAIFxFujv7+/s7HTmpdg4HoahRPbOzs7+/n6nu350lsp2IDwMQ38rxHFHkocIIIBAiwSI4y2CpVkEEECgOQKRA89+Vo4M2WEYZrNZJ6b7AT2ymr8J3R/J7nagPbKTWp8CAggggECCAHE8AYenEEAAgXEWkODrzwORrGwDcWRHIye6RMbxTCbjfE1TNqGzXKQgW8zlck7EJ45H+rMQAQQQqEag5jje19d3wgkn6Bt0T0+PziYfGBhYuHChPtXd3a1PRRaq6R91EEAAgakskMlkgiDw47jEdH2/tQUblCNTuz8vJTK1J4yO++E7m806aX4qHzX2HQEEEKhJoLY43t3dHQSBzdm33nrrnj17hoeH9+zZ09XVtXDhwoGBAQnf3d3dNqz7ibymjlIZAQQQmGoCOj6dTqf37dvn38zEud2K4yMh20/J/ti2jJc7s8nj4rg/+yUMQ2lBPhVUHLN3+slDBBBAYIoL1BDHZVzcZnGbsLu7u0844YS+vj67MLk8xenZfQQQQCBBQALuqlWrUqmUPzoeOZ7ttCZf97QD5xK4/TjuzwUPwzAyjkcudLbLQwQQQACBmgRqiOPJgVsGzpOHw510XlNHqYwAAghMKQGZECKD4n4cD8PQn+1tfXRkXSK4xHcp+zHdRnbdlrZgn81mszJ/xi7Usq5re0IZAQQQQCBZoNo4LvPC7VwUJ1vLZJUgCLq6umT6ilPBf5jcM55FAAEEpqzAyMhIJpPRH9yJjLmRk0ZETML3nXfemU6n/Tgepyrj8bqtuIFwm+y1KVmXaSoKQgEBBBCoXqBpcVzStoyRy0hJxZHy6ntJTQQQQGBqCjgR2SJIXE5IwDY327JtxJadbcXF8ci7IvJVTitJGQEEEKhJoMlxXEK5jpQvXbrUHxTXJTV1lMoIIIDAFBRwIrIVkKdk8Nsu17KN4LasFZyC02BCHK++prMJHiKAAAII+ALVxvHh4eGlS5fW9GXNivX93rAEAQQQQMAKJMRxmT5ub2toV9Sf6nQmq8RNHJcf/kylUprvE+K4DJDLfV3ka6C6ltMHHiKAAAIIVBSoIY739PQ4dznUce7IAnG8oj4VEEAAgWSB5Djuz1eR+rlcLi6OJ2zOCdYax+13NzX9y3C7TE0kiyeo8hQCCCBQUaCGOC4D5E4i1/uOr1ixwt7lUO6KyGSVigeACggggECCQHIcl0xs7yxub1loE3M1udmuayO4hHu/k5LXI3+lyK/MEgQQQACBOIHa4vjw8LCMkettrfT7ms5PcgZBoE9Fjp0PDw/H9YnlCCCAAAIikBzHwzCUDK23Q7G3W7HzxW05zlbmsWj41tFxv74G/Ww2K9XsRwK/PksQQAABBBIEao7jcdm6juUJ3eIpBBBAAAH9tUtN25EmGoj37duX/vTfyMhIlZNV7Ch4EAT2Pi1xcVxWsV3SdM6slcgDxEIEEEAgWYA4nuzDswgggMB4ClQcHZfOSbUgCHRud+Od9uO4LLFB3G5FQ7nN9LYCZQQQQACBSIGIOJ7P5+sY6q51lXw+H9khFiKAAAIIIIAAAgggMHUEIuJ4oVCoNVvXUb9QKEwdZfYUAQQQQAABBBBAAIFIgYg4XiwW64jXta5SLBYjO8RCBBBAAAEEEEAAAQSmjkBEHA/DsNUD5AyNT50zjD1FAAEEEEAAAQQQSBCIjuOlUql1ibxQKJRKpYQ+8RQCCCCAAAIIIIAAAlNEIDqOy84Xi8VCodCsb3bm8/lCocAclSlyYrGbCCCAAAIIIIAAAtUIJMXxatanDgIIIIAAAggggAACCNQtQByvm44VEUAAAQQQQAABBBBoVIA43qgg6yOAAAIIIIAAAgggULcAcbxuOlZEAAEEEEAAAQQQQKBRAeJ4o4KsjwACCCCAAAIIIIBA3QLE8brpWBEBBBBAAAEEEEAAgUYFiOONCrI+AggggAACCCCAAAJ1CxDH66ZjRQQQQAABBBBAAAEEGhUgjjcqyPoIIIAAAggggAACCNQtQByvm44VEUAAAQQQQAABBBBoVIA43qgg6yOAAAIIIIAAAgggULcAcbxuOlZEAAEEEEAAAQQQQKBRAeJ4o4KsjwACCCCAAAIIIIBA3QLE8brpWBEBBBBAAAEEEEAAgUYFiOONCrI+AggggAACCCCAAAJ1CxDH66ZjRQQQQAABBBBAAAEEGhUgjjcqyPoIIIAAAggggAACCNQtEBHHP+IfAggggAACCCCAAAIIjIlARByvO9qzIgIIIIAAAggggAACCNQkQByviYvKCCCAAAIIIIAAAgg0U4A43kxN2kIAAQQQQAABBBBAoCYB4nhNXFRGAAEEEEAAAQQQQKCZAsTxZmrSFgIIIIAAAggggAACNQkQx2viojICCCCAAAIIIIAAAs0UII43U5O2EEAAAQQQQAABBBCoSYA4XhMXlRFAAAEEEEAAAQQQaKYAcbyZmrSFAAIIIIAAAggggEBNAsTxmriojAACCCCAAAIIIIBAMwWI483UpC0EEEAAAQQQQAABBGoSII7XxEVlBBBAAAEEEEAAAQSaKUAcb6YmbSGAAAIIIIAAAgggUJMAcbwmLiojgAACCCCAAAIIINBMAeJ4MzVpCwEEEEAAAQQQQACBmgSI4zVxURkBBBBAAAEEEEAAgWYKEMebqUlbCCCAAAIIIIAAAgjUJEAcr4mLyggggAACCCCAAAIINFOAON5MTdpCAAEEEEAAAQQQQKAmAeJ4TVxURgABBBBAAAEEEECgmQLE8WZq0hYCCCCAAAIIIIAAAjUJJMXxYrFYKBTy+fzwRP6Xz+cLhUKxWKzJhcoIIIAAAggggAACCIyBQHQcL5VKhUJhIofwiL4XCoVSqTQGpmwCAQQQQAABBBBAAIEqBaLj+OTL4hLPC4VClS5UQwABBBBAAAEEEEBgDAQi4nixWIwYW54si5i1MgZnFZtAAIEmCmQymXQ6PTIy0qw2s9lsZ2dnf39/fQ3W159cLhcEQTabrW+jrIUAAghMYoGIOD5Zh8YZIJ/E5zG7hsAkFnDibzabDRL/5XK5ZI1G4vjQ0NDq1avrCNaZTKamzwBDQ0OpVMrfUdm7TCbjP9XcDy3JhjyLAAIINFEgIo5P9O9uJo/j5/P5JvLRFAIIINBqASeON765auJ4XBr2Q7CzJJPJhGEYGZedmnEPZQRdOmBH02V8XeN4KpUaGhoSjZGRkfSn/5r4N4TGnWkBAQQQqFIgIo4nx9lJ8GyVNFRDAAEE2kGgvjhecRA9Lg3LGLafhpUiLs3LKhLHtbIUah0aD8PQ7wBx3FHlIQIITBoB4vikOZTsCAIITB4BGe71E3Nk2K11t+PytG3HT8P6bCaTsSPTujwujvf393d2dtbac78DxHGlpoAAApNMgDg+yQ4ou4MAApNKoBXTMKqJ44pY/bSTuDnrEt/37duXTqf9Dxh2iZ1cLnHcPitlnaziP8XccT1qFBBAYGIJEMcn1vGitwggMLUEZGi5uUGzpjhuue2YvZ3Vbes45WpuqKLN2hH0akbHX3rppdWrV4dh2IoPLc6O8BABBBBonUANcbyvr++EE06wAxLd3d06lXxgYGDhwoX22SAIli5dqhW6u7tPOOGEvr4+XeIUtAW7ltbZs2dPV1eXtm83PTw83NPTo091dXXt2bNHV/QLrdOkZQQQQKC5AjIFXOO4pFt9u4srxA1US99qjeN2oFoGsDVASwci565oSo57VjqjjVeZ723nRUNxmitPawgggMCYCdQcx3t6eiTgdnd3B0GgsVjCdGSS1vrJcbyvr6+rq+sHP/iBn6dlW7bx7u5upyf6cM+ePUuXLh0YGPCDuCwZM1w2hAACCDQioKk3lUp1dnb6gVUq2EFluzlNunGp3V9um9KtB0Fgl9tNSNn5zKAVZKJLQhzXTxfJnx+0Qblni22wvonptkHKCCCAwLgL1B/HZbh64cKFEnwbj+Pd3d0LFy7cuXNnV1eXZuvh4WEZldfc74Rs6YZN6k4F/+G4o9MBBBBAoBqB/v7+uXPnptPpVCq1bt06/27fyXE8chP9/f1LliwZgxsCatS26dl2ST4t2Pni+qyEbP/TQjVLqk/2ujkKCCCAwPgKNBrHNQc3GMdldcncSz/9pzF66dKl/ni5Put8KtDlCYXxFWfrCCCAQJUCmc/+yXyMbDYr0VZvfWjjeDabrWbahoxkJ49223HxahKwUyeXy0mezmazcbdhibyVYTKLTk3ZtGlTxQH75KZ4FgEEEGgrgfrj+NKlS4Mg0GHsBuO4zFSRmeXd3d2av6VZHYOPDNkylcXOnImspgvb6gDQGQQQQCBSoL+/P5VK9ff3a/iWavbLnRrHNUDbsWEZfs5kMvKshnXJtbZmGIa5XE4rRPYnYaF0SRvUXuncklwu19nZ6aT2uIfORwUdZQ+CwNlEEASRg+sJXeUpBBBAoA0Fao7j+gaqiVliruRmfVYKGtaHh4eTv8opM1Vk3ovMTpF1ncFvTd72k8Dw8LBUk40mZ/fh4eE2PAx0CQEEEHAEZGRcEq0NyvYndWzwlfBta2rsduK4tOkE2U2bNvnT0xMmjdjVnThud6SO0XHprV5N7IZsy1J2KvvzefxVWIIAAgi0m0DNcVxSssRiO5+7kdFxZ107Im7LOrxt87oulIJ0LPk7o+12DOgPAggg4AiMjIysXr26v7/fieMSfHX82MbxMAxlIooOIWsU9uP4yMjIkiVLNm3aJGtJiHdWD8NQNud/hdTe3kSr6Xbtvmgf7EIpy+cHv3H7rIZyLchWIu+Gbj+K+JtjCQIIINC2AnXGcUnJdoDcidROSk4eHfdvoRgEgUZqf+54QhzXr37qpHa/J217MOgYAggg4AvoZBVJ1Xa02InjdoBcZ6roDQfj0qomZmnNfvNy3OO4Det2DF77LFz+5w2fkSUIIIBA2wrUGcf1Vt86QN5IHLeTxSU9S+CWxuWe4nbeC3G8bc8nOoYAAk0X0Dguk09sQnXiuB0gtwPYCWnVaaG/v//cc8/dvn277AVxvOlHkwYRQAABX6D+OO4MkNcdxyNXlIU6C9z52qiN4319fStWrLBD4EuXLtWRdbtcy74CSxBAAIG2FdA47gwJ67C3zl2R25XMnTtXZqHYPfLXlWd1frmtrGWJ4zpRxBbsIL0dt9Z1pRC3XZ3iYj9d2HX9qSx2K06zCZ83bJuUEUAAgfYUqD+OOwPkkalaE7BMVrFv5TodxWZrp75N1fZ3N4MgsPNknKc0xNvWbLk9jwS9QgABBCIFNI77z0pCtXHcryNLJN06b8LyMGF1aT8uMeu2EjJ9ZG7WbtiJMdpacoeZO+5A8RABBCaBQA1x3CbaCV2eBIeNXUAAgakj4Mdx+c6lhNqERNtqItuNuInpdfeB0fG66VgRAQQmnABxfMIdMjqMAAIIIIAAAgggMHkEIuJ4Pp+f0IPfyZ3P5/OT5+ixJwgggAACCCCAAAITXCAijhcKheREO6GfLRQKE/yQ0X0EEEAAAQQQQACBySMQEceLxeKEDtzJnS8Wi5Pn6LEnCCCAAAIIIIAAAhNcICKOh2E4WQfIGRqf4Kcr3UcAAQQQQAABBCabQHQcL5VKky+RFwqFUqk02Q4g+4MAAggggAACCCAwkQWi47jsUbFYLBQKE/2bnfl8vlAoMEdlIp+l9B0BBBBAAAEEEJi0AklxfNLuNDuGAAIIIIAAAggggEB7CBDH2+M40AsEEEAAAQQQQACBKSlAHJ+Sh52dRgABBBBAAAEEEGgPAeJ4exwHeoEAAggggAACCCAwJQWI41PysLPTCCCAAAIIIIAAAu0hQBxvj+NALxBAAAEEEEAAAQSmpABxfEoednYaAQQQQAABBBBAoD0EiOPtcRzoBQIIIIAAAggggMCUFCCOT8nDzk4jgAACCCCAAAIItIcAcbw9jgO9QAABBBBAAAEEEJiSAsTxKXnY2WkEEEAAAQQQQACB9hAgjrfHcaAXCCCAAAIIIIAAAlNSgDg+JQ87O40AAggggAACCCDQHgLE8fY4DvQCAQQQQAABBBBAYEoKEMen5GFnpxFAAAEEEEAAAQTaQ4A43h7HgV4ggAACCCCAAAIITEkB4viUPOzsNAIIIIAAAggggEB7CETE8Y/4hwACCCCAAAIIIIAAAmMiEBHH2+NzAr1AAAEEEEAAAQQQQGDyCxDHJ/8xZg8RQAABBBBAAAEE2laAON62h4aOIYAAAggggAACCEx+AeL45D/G7CECCCCAAAIIIIBA2woQx9v20NAxBBBAAAEEEEAAgckvQByf/MeYPUQAAQQQQAABBBBoWwHieNseGjqGAAIIIIAAAgggMPkFiOOT/xizhwgggAACCCCAAAJtK2Di+JOPh6fOCDv+iv8hgAACCCCAAAIIINCOAqfOCJ98vG2DdX0dM3GcLM5HEQQQQAABBBBAAIE2Fzh1Rn2pt23XMnG8zenpHgIIIIAAAggggAACHSa+tm3ErqVjZn84uggggAACCCCAAAIItL9ALWG3/evGxPH27zg9RAABBBBAAAEEEJg6AvZDwuTaa+L45Dqe7A0CCCCAAAIIIDApBYjjk/KwslMIIIAAAggggAACE0OAOD4xjhO9RAABBBBAAAEEEJiUAsTxSXlY2SkEEEAAAQQQQACBiSFAHJ8Yx4leIoAAAggggAACCExKAeL4pDys7BQCCCCAAAIIIIDAxBAgjk+M40QvEUAAAQQQQAABBCalwNSM48VisVAo5PP54Wb8y+fzhUKhWCzWcYY0tyfJe9NIP+vYNVZBAAEEEEAAAQQQqCww1eJ4qVQqFArJsbXuZwuFQqlUqoz+aY2W9iR5F2rqZ5W7QzUEEEAAAQQQQACBegSmWhxvXRaXBFwoFKo8DK3uScVEXmU/qYYAAggggAACCCDQQoGpFseTQ2pTnq1m1kqxWGzKthpppJp+tvDMo2kEEEAAAQQQQACBMAyJ440k2sh1qxkgH9+hcel2Nf3kNYIAAgi0rUA2m+3s7Ozv7x+vHmYymXQ6PTIy4nQgk8mkUqmhoSFneUsfZjKZbDZb9yZyuVwQBLlcrr4WqjkWQ0NDqVQqk8noJiqulclkgk//1d0x3VbrCmMp39/f39nZGXfWVXw5RJ6x9rhkPv2XbDUyMpJOp4MgqO8k12Na6+qNdN7uYxiGzsPk/dX6keyybq0NRmyROB4ZqRtZmM/nI6D/clGzvkXa6n7+Za95hAACCIyDgF7+nUzWSOrNZrOS86r5b1zKicwHYRhW7FhNWw+CIK4DejAkDTSSp3O5XMWt6Ob8QsVgbTNNKpWSQ6lrScpctWpVKpWyR0Q/YLzxxhvaQq0xzvZ2QsvLCyFy9wVQuewu23LkGSvNZjKZkZGRN954I51O+2eCfFrTQyPBdGRkZOjTf85RC4LAJldn3SAI7Ecy273kct2d1zNHt5ucnuUk0cphGMouJPAmN5i8X//7LHG8kUQbt25F+rgVx3h5xX5SAQEEEBh3gch0KxnCXvWlnxpMNTpIwUkYGgTt3lW/MAzDuA5UGced/mhi8C/5VQZl2XEfxO5gQjmTyfhdSqjvPBVJ59TRyKIHVNeSpLVv3z5n+NxpQZVsVPLrJCzRLdo60rF2lo87q/Vwx33McKCSE62aZLNZJ/Qn/PHE14vcir5knC7F9TwIAueIRDarnyUSOu+fNnoq6lo6Zh856h952ui6fvv2qWrLxPFWJOCK+q3YaB1tVuwnFRBAAIHxFZCrtTMuHoahDAc6l/a466J/NfWXhGFY/ULNFpqHrJLGTbvQliM35McaWcWP4/5wo/PZw3monRQ059lqHmoLdi9sOXKPbAV7aHQoV9a688475ZOAH5KcFuRhQjSMrG8XRvaz/eUjZTSeDg0NzZ0715m1lbyKNfETrX1Wygnmvp52zGknckPVH5HIZiPbdLZrzz15Svpsz3znnUROUXnbkU3YylK2b0qR2n43kpYQx+tIsRVXSRL/9LmKLYxNhYr9pAICCCAwjgL+Rc6/juplMiHS+Zd8f0lz43hyfo3cuuyaMyIofyh3xq39gB53jCRJJHdG/xZfzSyChLFMPRBOQTtvj6ZEqzvvvFMqy17bCnF7lPxBKGEteWqCykfKaDzVgt19u4od+tWjo2eaniR6OLSOhtSEOK4frnTrkf3RA6dtVnlEGuy8v3pnZ2cul0v+O4zd3/7+/lQq5Xza0Z2VgtV2nqr2IXG8FcG3on4rNlpHmxX7SQUEEEBgHAUiw5P0xxmB1pqR10V9VvelplipgVJXj8sW2rfkBOz3RwfwNCTptvzw7S/Ryk5Bk5b/fVOtqWJS2UlLWk0KcX+siNwj5xOObkjbdNbyK2hNpxDXDaea/9DZolSQ7bazfKSMpN5NmzZFfmfAX8U5GeShJu/ISRoKKPHUVtbJJP7Z6MRxPxBrO/ItWP/15R+RRjqvLy49t30c3VMp2PMkm80mv5z99p3WqnpIHJcUOzAwsHDhQj1Furu7bbpNftbWlHJFen8VWdLd3a19CILghBNO6Ovrs5UTetLT02PXDYLA2QvbjpQr9pMKCCCAwHgJOBdg2w3/KU3nkRdae3GVdvwlTnbUzUXWTIjj0jdn6q22lrB1P4JIZT/u+Euc9vWhD6VPSUE2qmmjYv24HBynZJf7h8Y+W1Om8Udknf2Ke+hs0SKMcRyvSd6nk68opNPpJUuW6OGzey1EGkB1fldkZX352BZs2Y4W2+XaDft5z596LqtII7ZLcS862V97RGR36uu8f2olv0jtoZGynZfi7L48jDxAkTVjFxLHh4eH9+zZ09XVtXDhwoGBAY3FPT09Uk5+1s+4w8PDsdyfPRG51vDwcHd3d1dX1549e4aHhyV520Se3JOenh5bWdK53Sl/o591h/9HAAEE2k4gIXI5UcOGyMjroh/C/CVxySCypl7g/YFJ6Yw/4Gd9axqb9++s0qw4Loz+sKh0z4Yh7XzjcTydTvs34pA+vPTSS5FP+bNo7BHXvlVTmKDykWe1HYTOfvrPCjivETm9ZczOPznjArQ2GBfHI18d0lvZlj2LZJi8vjiuB66Ozuur1W5aT35nHFMe6sdp3a6t1tnZuX37drnbo13ulO3mVDK2QByXEGyDrBNbu7u7E551KsvDWO7Pnohcy4njw8PDEql1kDu5J04cl9Y+fo/TzxX+Rj/rDv+PAAIItJ1AXALQuc46ZGXDii3rLvmhwV9Sdxx3ErlmERtEtCdSiNy6rOiv5Ydvf4nTvj5MiK2SjXK5nNTRuQeyri50IkXjcVwblONr05Vz7CKVdNcqDuhqTVuIbLP95R0Z2SON43qw9BWhY+F6Og0NDaU/+7dkyRI9CtKUw6INaiqNfDFGLrTatiy7IPdATKfTeld+Z9OyinNEGux8ZBy3fUso603lJb5bYbtW5AGyFSqXieMVY6tMIEkItXXEXH8VWWJHxzWO66aTe+LHcUnzurq/0crnBzUQQACBcRKIvE5LX5woZmNB5HXRbypy0MsZ3NKHNjIqhlye161bl0qlbAVZfu655zqJR1eMy/1OBNH6fviW/dXuVSzYP/Fr0nK6Zw110zqkqjvYrDiu3ejs7NTbkDvHzj9qtmPOOWCfSihHttn+8tJD/0DrkRVPPUx+HM9ms/ITP+l0Wm4oqclSj4W2b9sRzMhTTtrUtZyC9i2yBQ361RyRBjtv43g1v3MUef4QxyNZqln4V3+uZD5z+JFUJ6sEQaATRWw1mSIS96ytqeU/bzqmpDWdgo3jsl3bpeSe+HE8eTS9mkk1Md1nMQIIINBygcjrtF5Z9XIus1c1QDiRTnrpN+UviUvJkTXtDU9ki9rugtmdAAAgAElEQVQB+bu/xHQdAnSwItusKRTq5pyWnYeStDQY6Yi4U636h82K4/IZY8mSJZLhZHecYxeppF0drzg+LvKOjCDo6Lg8lDp6rCU+yui43glRV8nlcjLvXPzlXpMa0BVZC3Gf1uQEcz7aRZ7JcmN7uZ+J9E1ewpFH2bbQeOdlc7Knso/+JxDns4R9exEE4rieDLUWaojjkont1yj9EeXkZ51UXbGvTn19aLcSBMHSpUv1KS3YOrafThx3Jrro6rZQsZ9UQAABBMZLIPI6LZ3Rq2kul3OSivNQ6ic0Zfeuymrapl6z5VKtM0ozmYx0Iy7fRG7IRhDbK390vOJMX7t6NeX+/v4lS5bYb+PFrVXTXxVs1NbPUYoj0531rnM6aqvZLlJJOzYucXy85CPPas3WaiKhWQDlnJQ4rkPC/iqyrn/uSV7XUyIujkd+iPWVpDPyrVPpnm4x8ijrs/JhW1apo/P6cdT5hSldrjuohrJH+tKOuy2M86ks8gDZNiuXzcBx5coTqkbNcVxyqo5AR0bh5Gc16VaE0ppOQUfH/e9xOjX9nkj+1k941cx3r9hPKiCAAALjJZCQAKRLNhpq8I28LtpLvl1L3zCrKdgLsFzONTjKYHkmk7F9jksPkjD0eq+8NoLoQjsMrwvrS6J2dbsvOrHB75JMEtAVde6KautTVlgXOllNdtBmMl1LRkDlbtA63VmftQ1quT6EyLXaXz7yrI48wVatWiV3yNY4PjIysmTJElkYuYreJkhH1uU1sm7dOk2r9sTWQyAFp2+RNeVQytcf7avGOUO0ZT0iTem8/Sgom6g+jmuXxNM/8yMRdK0aCsRxJ+bKw6VLlybE2eRnq5kEErlR56ucfX19J5xwQuSnAl3d9sQZHdc6CYUaThSqIoAAAmMroHkiYbOSGzRG+NddWTc52Ol3Q88991yZyuwkBr8Dkddm5xofWUeaihtyi/tUYNOz/0nA717CEhueLIssdza0atUq+e6dxrK4lm1TcXVkE7ZBZy1HzHnWNutQ26eSyxNU3h413cG4bC0VIl8+CavIB5V9+/bJrW+ceVaRIVt7Ii/DXC4nG3VePtL5bDYbeepGHmVdRTcReUdFfTa58/7bgvQk7uXm32tIP7ISx9W8+kKdo+MSXm3M9eNs8rPNiuPDw8MVN2QrEMerPzmoiQAC7S8gl2QbtZ0+y7VfvkmpI7uRwSXykq+tadSQapFjeFpZCv6f4yPH+SLTT9x+RUYQf3Q8rprTw7iHmpz8DuskXTtDQJGdfOa0nywslf1D46zlqDrP2i1GZk1bIbI8ceV9uuR4qp8wnfgYeUKKlbwK7A12BFla0NeI/TyjH95sunWyuJxm8vJsXRxP7nxcHI97b3HOQ/GxGv7ZFXmA/GpJSxgdHx4eXrFihf21HWdYOvlZP6wPDw/LgdHLg38AItdyRseHh4dr6glx3HdmCQIITGiBhEBm32blMi/hIPK6mNCOfMNM/pRvqyUEF9mEzqkQ4ciAmFDTTy2Rlf047k8lr/4QyyY0hdj9tY2Ip1ZLDiKyYlxTtlnZut1xu5azUf/Tgm3KrmiXJ5dlR2wHpH77y/t0zY3j8iFNRos1wUvGdW6fos861BqI9bTRCjKJS6fEOP6RhzLyiMS9JJM7bw+xbto/2bS39vODXZj8Kog8QHb1ymXiuP7gjv2zhf2KpPNDmMl38pacHfea1+NRZRx3BsiTe0IcV14KCCAwOQTi3kvl4ucMecgfrON+SkZH8lRGAoRND04ysAPJupbEIGfTcf2MHKSU8UU/1kRGECeOS4zQVGF7VU1Zdlk37eyvtiC743ze0GcjC3FN2cqyg/ZSq+VMJiMb1b4lxPHkLGW36JQnrnxk2ouLp7LXkUfEWUUkdfqQbEVfKXaevXPmWFhtJJvNSjXn1aGVI89eG6b1fJCCcwbW3fmmj4739/fPnTvX/r0o8gDpjldVII7HJeNGlse9ieshaaTxJq6r/aGAAAIItKeAnyokt9kYbXseeV10GpEWNHbo6k41vYrbH/rxc4ksSYjIckWQbJHQeem5E0GcVNrI0LjuphY0SDkxSPOZ1qxY8OkqrmIrSE+cYxrXZsUrrG1ZyxNaXs6N6g+T1Hc87YC6nLT+S0CUdEN6VvunvcDKJxy7IT2pdF09BHFx3O9G5GtB43itndcXsr64tJO6p07B/0QhMueee67U3LRpE3Fcj2xyoaG54w1GXj1p4rrYYPvNWj2ueyxHAAEE2kTACWpynfav9FX2Vi/DdhRW143LfxqG7rnnnnQ6bbdeZX80QUZOS5UO2Agi9TUiSIyITDPa+fEtxNFV2avIjxmRbVYJ7m93QstH7rVNGlJBT5jILyPaOO776BJ9jdhI6sdxWWKDuLag81LsTHRdaF8+zqdNbcG+FnSh3V9d6BT8zutLye6OVIvrfOSpou1oprebjjxAtkLlMqPjzYq22s6ePXtSqVTkAdPjkc/ntf54FfL5vPaHAgIIINC2AnKps1fTFnU1Mv+1aFs0W4fAmJ0JdfSNVSaxQHJ819F355NGbSDE8aan4UKhUPEYFAqFpm+31gar6WfFHaECAggggAACCCCAQEMCxPFaU2zF+sViseIhKRaLFdtpdYVq+llxR6iAAAIIIIAAAggg0JDAVIvjrR6Wrn7IudU9SU7z1fezodOLlRFAAAEEEEAAAQSSBaZaHC+VSq3LwYVCoVQqJYPrsy3tScUsXn0/tcMUEEAAAQQQQAABBJovMNXiuAgWi8VCodCs71Pm8/lCoVDf3I/m9iQ5hTfSz+afebSIAAIIIIAAAgggEIbh1IzjHHoEEEAAAQQQQAABBNpCgDjeFoeBTiCAAAIIIIAAAghMTQHi+NQ87uw1AggggAACCCCAQFsIEMfb4jDQCQQQQAABBBBAAIGpKUAcn5rHnb1GAAEEEEAAAQQQaAsB4nhbHAY6gQACCCCAAAIIIDA1BYjjU/O4s9cIIIAAAggggAACbSFAHG+Lw0AnEEAAAQQQQAABBKamwJSL43aHKSOAAAIIIIAAAggg0D4Ck+sDyV/9eXfah5ieIIAAAggggAACCCAQJ/Dn/DoZSiaOnzrjL359NG7/WY4AAggggAACCCCAwHgJnDpjMmRwsw8mjj/5eEgiH68Ti+0igAACCCCAAAIIVBQ4dUb45OMmyk6Goonjk2F32AcEEEAAAQQQQAABBCaSAHF8Ih0t+ooAAggggAACCCAwyQSI45PsgLI7CCCAAAIIIIAAAhNJgDg+kY4WfUUAAQQQQAABBBCYZALE8Ul2QNkdBBBAAAEEEEAAgYkkEBHHP+IfAggggAACCCCAAAIIjIlARByfSJ8m6CsCCCCAAAIIIIAAAhNZgDg+kY8efUcAAQQQQAABBBCY4AL/f3vv/5tllef//wVXOxQtkVQDE7G5NaCB1SissrCzdhoDq3EMjAgF4twaWNQVdczsSuKAzrpocZndYTAYhl3HgEULERoXtDK4ozCgCMqXdcqopXgLS5mibdktzX29Cc98nnl9znXuq9fdFrzv3s/+0Jz7us6X13mcb89zrnOdS3K8yAtQ5ouACIiACIiACIiACBQzAcnxYi492S4CIiACIiACIiACIlDkBCTHi7wAZb4IiIAIiIAIiIAIiEAxE5AcL+bSk+0iIAIiIAIiIAIiIAJFTkByvMgLUOaLgAiIgAiIgAiIgAgUMwHJ8WIuPdkuAiIgAiIgAiIgAiJQ5AQkx4u8AGW+CIiACIiACIiACIhAMROQHC/m0pPtIiACIiACIiACIiACRU5AcrzIC1Dmi4AIiIAIiIAIiIAIFDMByfFiLj3ZLgIiIAIiIAIiIAIiUOQEJMeLvABlvgiIgAiIgAiIgAiIQDETkBwv5tKT7SIgAiIgAiIgAiIgAkVOQHK8yAtQ5ouACIiACIiACIiACBQzAcnxYi492S4CIiACIiACIiACIlDkBCTHi7wAZb4IiIAIiIAIiIAIiEAxE5AcL+bSk+0iIAIiIAIiIAIiIAJFTkByvMgLUOaLgAiIgAiIgAiIgAgUMwHJ8WIuPdkuAiIgAiIgAiIgAiJQ5AQkx4u8AGW+CIiACIiACIiACIhAMROIk+Pd3d0dHR3t7e2n9Jc/gfb29o6Oju7u7mKuHrJdBERABERABERABETg4hLwy/He3t6Ojo78JahCeAh0dHT09vZe3GJU7CIgAiIgAiIgAiIgAsVJwC/HpcU9snoAlzo6OoqzeshqERABEShpAvX19ZWVlfv27QMF52dTU5O9W9KklHkREIEBEPDI8e7u7gEoTwX1E9CulQHUUgUVgZIm4EjAkmJRX1+fSqUymQxz7aWRTqdra2s7OzvpbbAcTnLOT8nxvDhnMpnUhT9boHnFMIie0+l0EATpdHoQ44yPCtlvamqK96a7pUnAI8e1NO4X1AO7qgXy0mxgyrUIDJxAOp12JGnyOOvr64PEf96FXqiWJHFEdUZeqUeDh2G4b9++2tpaK5uigjgIgsrKyqamJkeOQ/0ksdzG77B1knN+So47uOJ/Fo4cZ8301nmbi87OTtTAhBUJ3rwNdufOnalUqs8Ubepylw4BjxzXu5sDE97+0O3t7aVTq5RTERCBwSIANRBd+s2lNZ3B3pGPsCr5xTAMk0wG9u3bB0Hs5NqbkOMHmtsbnD7r6+sXL16MHSM2TkCIwkFA3K2vr2c8Xge82VXS5DOQqETzTiq86ZbgRaD2StVLSaOpqQkTMDSueHuS+Elu/ODGljxd+Sx8Ah457peTujpgAoVfG2ShCIhAoRGA0rViERZGRWQYhlaqwlv0itdbrovflRxH7qJit88rFhQi6Ycct3XAAej81Oq4ZdWnuxDkOLU4rIVJuWZ0YRjGCOiYWzEokKKtqDGedat0CEiOD1hlJ46gdGqVcioCIjBAAhizveoT69/eQd0Ri7lEdtRbLp+Q414zohejC8PehKJkoovr3txFA9or0EZW5SASyXFL6bt1o0TiV6MvqoXYo+JUiXirYjR3zK34XGgWF8+nNO9KjidW06dO7dix4/LLL9+wYUMeYYzX0qxhyrUIiMBACDh7RShwvYKVd5ki98hG1XP0irPRBZE4BjBm64jqadzNK3Wr5r25sylG3ZLjUSaFdiVe+F5sa7EHyVYzpojK463/MZo75hZj9jpgScySvDeULg5tApLjRi/35ZQcH9qNQbkTgUIjgPHeDtsUx17B6pXjUZER9Ra/Ot7ncmaMHI+mHoXM4E1NTUiLuYMjOnNwrtTW1mYymdra2ujquOMz108bMGrhYF1xsuMkCg7MSxAEKPpc12GVE2cQBI7ijA/uzRp2dJCVE2GfKSJO1F5GkkqlPv74Y+/JKnbalqTCeG2OuQgCfVZj79p5jOaOuRVjjMXigI0JpVtDnkAecvzQoUPV1dVsWnDU1dX1JWIL4n5dXR0t/8EPftDa2toPsyTHh3x7UAZFoKAIQEZQtGEgh0SDJOItmB3V2dEruZS31+el2axC5lEbvNmkfzhynXKIsM7OBCdsGIbRJHCFQ0Zyh1McTlqOxkW0ViNSN8+cORN3HTnuXEdRes2zU7hc0Trm4acVi4zZGmmlMz1w5sA4kaj1QLeNzZtcEAR9lhoT6tOBpej4omEkLHoKZVhobabnmFv0E3WAzM9//nNn9hj1qSslRSBvOV4s+ptqG7OI6urqQ4cO4eKOHTv+5V/+hR6SOyTHS6ptKLMi8J0TgICjMrDC0bppZ1TORq/0Q457tQgTjTkaxbHfBom6vTnyXnTCXiQ5npcihDKL0XyUpyxNTnUYCn5SqdTEiRPtydy5rlPfW1OjF3MFdzDiJ8Srs0S9dOlS2BONPAzD6EWKbDsroDdbnaLbNmCtY4DX1D4vOnI510SC8wQmClNRLjaSPmNgVLaUHTvT6TQS0g5yh0yJ/xw0OQ7Vu2zZsg0bNrBGcpt1a2vrD37wg7q6OihaeFi2bJmVwsuWLWNAK/qThLXxOO66ujqrxZ27p06dsqv+l19++Y4dO6wfexfmMVOnTp2CbbgeDWvjOXXqVIlXNWVfBEQgXwLcmoKAUAkY6b06NSq+kwsInN7Nz0/ma2ou/9Bb7NvjHVaoIUJkMz5UdGnWhrVS1WtklCSueANGCSPOPuU4ODgqDQlRs0KJ5tpt4lyn5I3aiXrSZ7RRGhTudjJAb8lThAHR0nSuIznayYRQaR1WvHuJHVaOO0nH3HJ88qetbNZND3KULIFBluNBEFD7Llu2jAqVspVXoNohbXGXAaGAuaUkPqwjeZ2fiMqKe8cDzODEAFMCCm5MHnjXWR13Irf5dVLBz5KtZMq4CIhAPwhgtLaahutq3i0W3mVvr3xMcjEvHe/I5UEUUlHJEjV+0FfHYwormnqMZ96ikHVA4SeLOJca9l6PVg8mh1tc6/UGp2frQKFH9T38JE8xVzxODFDnXiaDu1/F5jFfN8ouOmdwzkDs7OxMp9PeaYxN0ZlpaIHcwilx9yDLcWroU///c0gcwc01aSjdDRs2UKZDucaIdSesV/jyoo2HF+mAVVas4wpzUVdXR7eTo1OnTi1btoxTCK6U29iYEBwlXtWUfREQgXwJUMY1NTVBynBjg/MTMScUiwm95bIW8i6XaPOGin7rHt4QVV7yPbnxQJRL7TnXCZb2E77j0/sznka8JY4cjyo/UHKuey/CeFjuyHEnOLNpHd4lfHpInmKueMCB+Y2f8sUjpVUX25FQjsfAoYXIvi0IRB6tewwiR+kQyFuOOz0RV46dpWJHiToy17kb3U+C2BB5fFgnKudnvBx3Fr8RliLb2oBbdnU8KuVPnTrlyHfHmNKpVcqpCIjAIBKwqoXKFUO7M5BbqWpDOf12/E/KOGbB2TMD5ZGXWvoO5XifdnpJcu3Tiifv8wcEj0/F0ccE6zhySTrvdaRLaWujcm55g1v/dKPO5MqLEy1D8VkNjckVjxMDVsedOmyjHbgbeY+v8N67zAts9hqJYqVPpOX1iYzYp1vMGiCwXfO6HKVGIG85nmv1d4By3C5Cc/0baV1sOc6tKZTjWKqPl+O4G23GTkasIi+1uqX8ioAIDBYB6BsrDb0qwcpxb9IY+2+55ZbKyspUKhUjHRg8mlCMxKGFeW0ZdzpSSpN8I3GyA8tzicuYDOKWd1k0SjhhKshLvDG5dLP3OsxzNpTDcpQyy8IbnNm3DiegvcX5SZIUc8WDauzoV/50krt4P3Mt3ntTBD1vwTlynG+1ej2DifeWM931mqGLQ55AQcvxga+OYz071xTCrnZTNw9kdZyReB1DvjIpgyIgAheDAARBKpWChsb+1KhK9q7dWnsgCJqamqApd+7cmeSotehKZ4xAscnRDdXiaGXcRVTU3wwCh3dTeFQQUyk6SSQUyl6SjJOiFiZFU0+YCuA7W6IRltkHDSdFHlwTve6Nkxf7jNahzUXuIAisRLa7ohm5lZW8yBSRL+cVW1QkGzlnFDY5VONoZqPW9u9KdIm6qakpJjnkjlmziUbleBiGixcvfu2116w3gs2VSq4a6ESin0ObQEHIce/ece4mH8jqOMLaHd5WKEc3nNgr1o1QOLycq+nxW1NsQnAP7Zqk3ImACFwMAhiqoVcw/GMziXcIj4pFmmRViPXmlbwMBYGI1WsqsHzleIygKR05zmMNnUcBdrE5XzkeEycLK0bNs5Stw5Y4TbVyOdcjC5si14kZAxy1tbXOZ4C8yTk6HubBpzPjspYncdtWQP9NTU0x6+UxS9deOc5o6bBNmBcdB9qIw9Dxo59Dm0BByHEIX27zcPa9OHejMjf+CpbArSK35447m8ud01HsT6yaX3755ZTj8UvvUauGdk1S7kRABAadgHcghz7ABw4dueM9rBAjvV2Zs3Ici5FWFDIXNnUubTY1NUEYJZQOiMSmzvipFL1Lj9Ca0YCO8YgNqThaDRf7tNMbNvnqeF40HPVpZS5pRLOMUNHryHt8nDHR2oJw3FZzR98l6DNFr2F8HdnJdXRS4S0y1MBcVcWxP/ozKp3RLpwW5FQh5NRrD2tINDs2ddSueD/wH30MZeORe8gTyFuOO3WX+0AcDe2I0T4lNTwwcr4hyhNLKNadmJP8dCJ3ooIiR9JWtSNmfs6zrq4OeaQc5x53mn3+MZy969g25CuTMigCIjCIBOJFmFdEOlIVMUTllOOND9OtKPfKCIpy2+lF3ZQv8J9LR1Ip5tJY3pV7a7xVVFQ8EF5RqxJeoTGIxzGeqXuTHsTSV1QOgZhVasdn9KctLFsNWFERBHXeljgTxS0bNt6N2ogGyJoZNcy5gvbiTAkcP/o5VAnkIccdcamf+RIYqnVI+RIBERh0Al61nTwVSlKKSxuWmtJetKL8ueeeS7Kt3Aluf8KA6EzA+ulTjjue8TOX8V7Pg37xu0190LNTLBEOsDkkz+a+fftqa2tbWlrYHBzJnldUlZWV+Wrr+El48tTls+gISI7nK6r777/oKocMFgERGJIEilpTFrXxQ7I6XYJMQaR655aXIHUlIQKXgIBHjre3t/dfcipkDgLt7e2XoDiVhAiIgAiIgAiIgAiIQHER8Mjxjo6OHJJSl/tPoKOjo7hqhqwVAREQAREQAREQARG4BAQ8cry7u7v/qlMhcxDo7u6+BMWpJERABERABERABERABIqLgEeOh2GoBfIcorqfl7U0XlytQtaKgAiIgAiIgAiIwCUj4Jfjvb29UuT9lN6RYB0dHb29vZesRJWQCIiACIiACIiACIhAERHwy3FkoLu7u6OjQ292RgR2ogvt7e0dHR3ao1JEjUGmioAIiIAIiIAIiMClJxAnxy+9NUpRBERABERABERABERABEqKgOR4SRW3MisCIiACIiACIiACIlBYBCTHC6s8ZI0IiIAIiIAIiIAIiEBJEZAcL6niVmZFQAREQAREQAREQAQKi4DkeGGVh6wRAREQAREQAREQAREoKQKS4yVV3MqsCIiACIiACIiACIhAYRGQHC+s8pA1IiACIiACIiACIiACJUVAcrykiluZFQEREAEREAEREAERKCwCkuOFVR6yRgREQAREQAREQAREoKQISI6XVHErsyIgAiIgAiIgAiIgAoVFQHK8sMpD1oiACIiACIiACIiACJQUAcnxkipuZVYEREAEREAEREAERKCwCEiOF1Z5yBoREAEREAEREAEREIGSIiA5XlLFrcyKgAiIgAiIgAiIgAgUFgHJ8cIqD1kjAiIgAiIgAiIgAiJQUgQkx0uquJVZERABERABERABERCBwiIgOV5Y5SFrREAEREAEREAEREAESoqA5HhJFbcyKwIiIAIiIAIiIAIiUFgEJMcLqzxkjQiIgAiIgAiIgAiIQEkRkBwvqeJWZkVABERABERABERABAqLgOR4YZWHrBEBERABERABERABESgpApLjJVXcyqwIiIAIiIAIiIAIiEBhEZAcL6zykDUiIAIiIAIiIAIiIAIlRUByvKSKW5kVAREQAREQAREQAREoLAKS44VVHrJGBERABERABERABESgpAhIjpdUcSuzIiACIiACIiACIiAChUVAcrywykPWiIAIiIAIiIAIiIAIlBQByfGSKm5lVgREQAREQAREQAREoLAISI4XVnnIGhEQAREQAREQAREQgZIiIDleUsWtzIqACIiACIiACIiACBQWAcnxwioPWSMCIiACIiACIiACIlBSBCTHS6q4lVkREAEREAEREAEREIHCIiA5XljlIWtEQAREQAREQAREQARKioDkeEkVtzIrAiIgAiIgAiIgAiJQWAQkxwurPGSNCIiACIiACIiACIhASRGQHC+p4lZmRUAEREAEREAEREAECouA5HhhlYesEQEREAEREAEREAERKCkCkuMlVdzKrAiIgAiIgAiIgAiIQGERkBwvrPKQNSIgAiIgAiIgAiIgAiVFQHK8pIpbmRUBERABERABERABESgsApLjhVUeskYEREAEREAEREAERKCkCEiOl1RxK7MiIAIiIAIiIAIiIAKFRUByvLDKQ9aIgAiIgAiIgAiIgAiUFAHJ8ZIqbmVWBERABERABERABESgsAhIjhdWecgaERABERABERABERCBkiIgOV5Sxa3MioAIiIAIiIAIiIAIFBYByfHCKg9ZIwIiIAIiIAIiIAIiUFIEJMdLqriVWREQAREQAREQAREQgcIiIDleWOUha0RABERABERABERABEqKgOR4SRW3MisCIiACIiACIiACIlBYBCTHC6s8ZI0IiIAIiIAIiIAIiEBJEZAcL6niVmZFQAREQAREQAREQAQKi4DkeGGVh6wRAREQAREQAREQAREoKQKS4yVV3MqsCIiACIiACIiACIhAYRGQHC+s8pA1IiACIiACIiACIiACJUVAcrykiluZFQEREAEREAEREAERKCwCkuOFVR6yRgREQAREQAREQAREoKQISI6XVHErsyIgAiIgAiIgAiIgAoVFQHK8sMpD1oiACIiACIiACIiACJQUAcnxkipuZVYEREAEREAEREAERKCwCOSU46dOnWpra8tl7JkzZx577LGampr29vZcfuz1rq6uRx99dOLEiSdPnrTX4a6vr6+srNy3b1/01iW7cu7cueRpZbPZ3bt3nzlzJnmQeJ/Hjx//4Q9/+Itf/KK7u9vxee7cuQULFkybNm3//v3Orf797OzsrK2tDS781dbWdnZ25hvPtm3bFi1atGTJko6Ojpiw7e3tb7zxxq5du2L8hGG4YcOGioqK8ePHp9Ppbdu2xXtOeLe+vh4ZrK+vTxiE3p588snUhb+bb775008/5fXvynHkyJEVK1ZMmzZtzJgxu3fvvsRmdHV1ZbPZS5yokrMEenp6Tpw4kbnw14/WaqOSu5AJZDIZ9DyZTKaQ7bx4tu3atesv//Iv165dm9dw3Kc9GA76MRZ0d3evXLly4sSJX3zxRZ+pJPHQ1dU1d4uWcVsAACAASURBVO5cjCzZbHb16tUvvvhidNBPEpX8DD0Cfjl+6NCh73//+zfccENra6s3z+fOnXvkkUeCIEhexVeuXBkEwdKlS6OjO+V4T0/Pv/3bv3355ZfeRNFbQWYl+Z9KpaL9WkdHRyaTOXjwYGNj40svvZROp6+//vry8vK777777NmzYRjCQyaT2bt3b2Nj44oVKxYsWDBx4sQRI0ZQvK5evToIgvvvv7+rqwumNjU1JTEpl0ZsaGgIgmDevHnRbuj48ePXXnvt1Vdf/fnnn3ux5HsxXzmeTqeDILAw0bvZKz09PceOHWtqalq3bt1DDz00ceLEiooKZHbKlCnx85aFCxfC5/Dhw5PIzc7OTkiT6H+KleXLl+dC3Scu5DcIgiRTxP379y8a8F/8RKu5ubmsrAzZeeyxx/q0v38eSJVTrNbW1ptuuikIglGjRn300Uf9i1ahBk5g3759lZWV/a7PAzegqGNgf87OoWCzczHk+NmzZzHYNV7427lzJxs4OJAPu1PHA3H19vaePHkyk8lgoOR160BsuWKwPr3up59+OgiCZ5991nu33xcxYG3YsCHfGM6dO4fhabBMwuCLkaW9vX3OnDlBEIwbN27Hjh1RXZSvtfJf7AT8cjybzT7//PNBENxzzz25pm5Hjx4dM2ZMKpU6duxYEgrt7e1Tpky56667vvnmG8c/5fj27duHDRtWWVm5devWaO1EbzVq1KgHH3wwXgI9+OCDo0aNsnqRKVJsYXgLgqC8vLy6uvqBBx44ceIEV1V5l44rr7xy4sSJhw8fDsPwzJkz06ZNC4Jg0aJFPT09YRhCjj/11FPo9RobG9evXz9+/Piqqqq1a9fyYn19/bBhw5w5zLlz5+bNm1dWVrZ9+3baSUeMUqefvBz9k+NXXHHF3LlzU6nU7t27KcePHTtWV1c3ffr05557joqBxOAoKyvbvHkzLKTmY9f/2WefTZo0CT5ramo+//xz3rIOO5TGlBHBspR5JTkihk0ix/Oahjlk+LOpqSnGvFOnTt14443wPGHChBMnTsR47t+t1tbWG264IQiCqqqqvXv3IhIMjUiXk9X+xa9QAyEgOT4Qenv37q2qqgqCIGZ1aSDxD2LYwZXjbW1tdXV15eXl7GfomDFjBheS2N3xLsbEdDr92Wef2dxxOSymv0Js6XTaBkzoRkc3atSoQ4cOJQziNR4Z4dpZGIYYMmLMjkkOra+6unpQFsi7urqmTZvGkaW3t/ff//3fKyoqysrKtmzZEmOGbpUCAb8ch+Ksqak53zJXrFjR29vb3t5u5VEmk/nqq69+85vf7Nq1y7meyWROnjzZ29vb3NyMR2/8f8UVV1RXV/NnKpV68skn0VpYQXfs2DFq1KggCJ577jkoXRYDugPbzHjLcUBx5pLjVVVVr776amtr64kTJ5wk6uvry8rKHnnkEQjogwcP5loMoIKBIocssw3eawPatqMRDx48WFVV5V1FhlIPgmDdunVRzv1bhOifHL/66qtvu+22IAiefvppyvGPPvro2muvDYLg8ccfj8rxK6+8cubMmS+//DInbDFK2g4GUbclFhMJvbGb5hWnhsT8ZFjWyRjPgyXHjx8/zjlb1IGWeP5hVFlZ2S9+8YuoB1w5fvx4jKm5bnFuGQTB+vXr6c1yfvDBB6PTY/rs03HmzJk33nhjzpw5hbD5p09r++Ehm81++eWXK1aseOihhyh0+hGPN0gxyvGzZ89u37597ty5zc3N3kwN+sWYFNesWYMuZfr06XZiP+g2DDDCwZLj2Wz21Vdf5fPJESNGTJkyZdGiRVOmTLnyyiuDILBjKLu7aK9bUVHBlZQwDAdXjkflwejRo7k6ZkWCdd9+++12vys3Flo/cM+dO5ctEV2ZHZ1tSTFfUQIJr+Q1/Uin087IcuTIkeXLlztSxFood4kQyCnHwzDcs2dP5YW/5uZm7jZOUkGhg6PtLdpmonI8DMOjR4/edNNNXHhmSaDZjB8/fv369bkUCa5jZTqXHPdeRypcp2eiMQ6su4wePfrTTz+FLJs+fTqX7bFCP3z48Pnz5/Pij3/847KyMmrEmK4QfQeUei7m8b3AmjVrosBTqVR1dTWXTPBkwOttzZo1yDuMTKVSy5YtC4JgypQpS5YswfaVl156KQiC6urq119/HXJ8/PjxH330EeZjUXRW4eXKlPc6iYVhmCtfqVRq6dKlqVTKGwMvxkMLw5CF4nSa0eyEYRhTyTkcBkGA50hezqlUqrm5ebBkvdfI+IssFOdRWFdX109/+tNUKjVv3ryvv/46PpKYu6tWrQL8JDxj4inYW11dXXfddRfyaIXOYBlcdHJ8+/btbG65NNBgwUE88Sl2d3ffc889MInd2uAakFds69at44hgHfPnzx9+4c8OGdbDunXr+kwom82uWLECmZ00adKePXucifSxY8f+4z/+g1IV3Z3tFXt6et588010pHZVmLI1pkyjseUyuH89XszYnSuhPlfHkS9npLbYY9zTp08PgsDSixkR0P9jXBg9enR0OCiQt5ViSOrWRSUQJ8ez2ewzzzzz6KOPdnR07Ny5M14BNzQ0bNiwAX62bduWa4uLNzNREfztt99GY2B3wL4+3uFtuul02nsdhkUt8RrMix988MEf//hHblaJt4d3KS7T6XRZWdmPf/xj2+BvvfXWIAjQ5T377LNBEFiVD5/RXoAm0UGZxXTzclgjIb7ffPNNTM9mzpwJFX7HHXdgy/sf/vAHyPF4OdJvk2gMc+d1JKkhtuv0RpKXHPfGgIuMJ6a+MXj/BienQGOGSSbkOLDlLAiChBv3neBJfrLQh6ocz/dxUxJo1k/RyXFbmftRJ23eE7r7TLG5uRlrENdffz0f1iWMfNC9sWdw2m+fP/vsu7BAgJzaV5tispBLQP/+978fPnx4EAQvv/wygrN3jSnTXLFFDUCRJcmRTT1JX2r9xyNF6shX8phtXqK5sFUxPvXo3aHaQ1picscQiJPjMcGit9asWXPZZZf96le/srf48kd0o0Umk+nq6sKrIUuXLq2srHz77bcdb84iK5rN1KlTjx496vh0fh49enTq1KneBja4cpyZRSO0/VSSzSrR51Z2Kv/FF19UX/iL7lqL9gK0hA7KoGizT3KFChg9bCqV+uSTT+66666nnnrq0UcfDYLgqquueuqpp2688cbt27dTMSSU4/HekAWrcmgMc+d1cMCIyeDChQu9YXmRg6W3TqKmtbe3O2tODE4H4/HWQ3qDw66pjBgxgvZ7l9XxVBd+7PONfmwMwHwvCII5c+b0+2np2bNngcW7E4D1MH6w4Stl3kgcXGEYItGzF16/jt5Fz9O/3VzR2Hi2ibfcbUWNqdjZbJZb/nKZjaTJE/azceX16nwYhjQ7k8nkQmG76Fx+YoB4g1hFYrtEJx6a5/TzjrckP/tMsbu7+84770STWb16dZI4L54f9AyvvvqqM2wdOHDgmgt/Bw4ccG69/fbblZWVfYpXVsXJkycnPPQMxkRj/vbbb2+//Xa79MveNaZMc8UWhZlkCLOh8hXNJ0+evP3227ECjR71yiuv5II0utCLJ8djBiwM+h9++KHNndwiEIZhHnK8p6fnn/7pn7zVqL29ffLkyeXl5Y4gYAOmvLAO7DqwVxy3o2MQW8yAxxL1SmHcpUiyaVEo5Ls6zhTRudh+ymsDRla21Rg5vnXr1qVLl+Z6zTxJX0YZ5LxOip08yL6z82ft2rV47ckO/CCWSqVaWlowSMCwa665BsPGiRMndu/ejdVx72SJYzZNSl6IsJPEjhw5Ev+UBvunWcoMyKR5hWXnOBjW1hDHncR+xoNq3NbW1tzc3KeIx8mPSK6srMxpUDAVb/fCz0DOWrEviTY0NDgcrMQhNNuia2trv/7668cee8zCWbhwofMc3N6Fm80tDMNsNrtp06Zx48ZZb1OnTsU70zCJIgNPaVpbW5966in4h2EsXDxW2rZt28iRI7lH1rnLbDp5wTQgmtbKlSvtexETJkxgH2hjsPYzaaTV09OzevVqO4nC/Cd6kuw333yzePFiG9WcOXPeeecdGsCCYC68jsOHD3P/DGO77bbbrERra2tbsGAB963B2+jRo1955RU7MYsCefHFF+1GrL/927/lXiaLmunCYfvGr7/+2km6srLSnvi2detWGuasZ+NUK8T5xBNPvPDCC05C/GlTtM3K+5aOF+NFuoiewTGPm7OdUQ82YOCIimbHwvfff//8UQH27XnHQ/QnjInGzHLnLdb2qOWMNlds9EBHkiGMnuPhWG9eN6qlNdvy7O7u3nbh75tvvuGJohjp+vx/9OjRxsbGPXv2MF3kK6ad4tQvawzDylHiBDxyHKdKY1PE448/zmMH33vvvREjRlRUVLz66quOqli/fr13gQ0NuKamxpFQGE03bty4bdu2xsbGmpqaqqqqVatWjb/wx63hzqYXxGaXAznZdRzYHu3t19LptLNL7NZbb6U+gByPrtOzWXZ0dNjXR/i+iNUuHA9yOdhWY+T48uXLr776amcoYmVN0pdxaHQ4sJ91RAO7PJhtjYQMcoQCc1dZWblmzRoqBl6ngx06TUpeiI4xjIGROw50c5TCfBWJAZkvwnQcDOvEbH/mK8d3796No0vS6XT0ZCHHgM8///zqq69GcosXL3baml3nG+AOEwzeQRB4j9G0VZrQOCTjLYK6ujqLBe4nnngCNuciyebW09PD5XknHvsama2xqVTqvAijZxjGwg2CYNmyZZxSopjsXTsK2rywQG1a1dXV3jrP82dsDDQJDkbY1dV1//33O3fx0zlB8vyEDW9LO57HjRs3bNgwXGRBOHWGP3GYMbWsjcr2A83NzaRk/cA9e/ZsHk6aBAjfOrConWhJ/siRI2PHjnXu4uddd92FdHt6eh588EH64TFzx44du/7663EdC8BJUgScI0eOXHXVVQkPMCXPi+FAuyAQJoHqZIuJt6x85MWoA1Lv2muvTf5WN4xhF804//znP6M2csLP2h61nKFyxUYPdKB7mT17NsfWeAceHVg4e/bscXSF85MqGUsG1mwvT1xkrUvisHEia8hXTDtFjbUB29vbf/vb39qpMinJUVIEPHLcdnAcOAFl//79eMPj2Wef5QrKl19+OXbsWMcn/KMBR5s6qixrJDaQtLS01F74y/W0GrElV3K26bJQo5tV7Iq4zbu3NabTacjxMWPGWDmLHNmDDp2uAT+dgw5j5HhTU1NbW9vHF/7ee+892g8HkouCtd6YF4eDHV8pGhCQHa53ddwrTTC85SvHvWxjLrJ3Y6ZyeUalohBkHWNARmVZWTfD5krClrsN6LgZT3l5uZ2rjBs3jsurThD85HE6OPPbOfaLezqDILjzzjujr1h44/RefPnll5HHadOmcUmbPlHH4IHQbA3BrUmTJqXTabv0y9e/0FLs3hu8wMQ3ljCNRzyTJ0/esGHDunXrcNj5+XXum266Caco2BpbVlZml2ZhGAs3CAKb3ADlOAyrrKysq6ubMWOG1bggjwfi3nejMVHPZrN4lISoZsyY0dDQsGrVKk63KGT5JQf4LC8vnzFjRl1dna05tlWymBzHpk2brJ1VVVV1dXXpdPqaa65hP3Do0CGcXoW0rrnmmnQ6fccdd9iAjzzyCL6BYOHD/7hx49LptH2gwWkhHnji+A545g4BPOfBc1TcqqioePrppxsbGxcvXsyk+aol32rAayrYsMfJ2/Dhw3//+9/zxe6YFMmHuy/sfmjevZQO9Azsmpg0GheLidfDMPTKR+sBD5rmz58fBEFex5LCmOhQsnHjxvOnDtjjd9n2o5bTklyx0QMdtntBfUjy38JhB5srIDMVBb5t27YgCJyNi6dPn96yZYt34M51MTrtQb5uvfVW+z4Y3Pi+xC9/+UunBuJp5wA7c4KVo3gJeOQ4M+MVi1zCmTVr1unTp3t6ehYtWpTr+z5owGwVjBlVFq363Llz991339ixY/uU4xj8uCDN2KIOfPvKORQJ3vqU4zgXnM0PK/c8O5wTbmSNcjZ+JystxHZJzje8hKEtAKetre26667jahzjAUCKJF63DmoU24WFYWjHV9qPgOxw7cCPviyVSr377ruNjY3nDzrEV2m4B2bLli18no5T4XGADNTkgw8+yAMBaFKuDjTXdeaUj26uu+46eL766qsXLFjAvm///v1nz569++67cZcjB5NmVJaVdbOX984wrc94N+Oprq5evny5FZEVFRWrVq3q7e3NFQPfPMOYwY9D2TMi7EiZK5746/wAkzMsIZQdLwnN1hCcRopcWJnl7LEheYfnyZMnqbynTZvG5Vh7mhC20NgaGwRBRUXF2rVrOzs729vbsd+DSaDQ0+n0V1991d3d/ac//encuXP2LuuD8yyIDcFJ64477jh9+jSA/Pd//zcm4c4Kqw3CeBDECl97VNT27dvRiChkba5Hjx594MABxMADVZE1FgTuOv/PnDkzZcoU+AyC4JlnnuFsLZvNfvLJJ52dndls1s6rly5dyoWVo0eP4hkOTqA/ePCg010EQfDAAw8gzp6eHnzEBMnxhT/nvXYLHOoZ/svLyzdt2gT7rUl2JwkPKMT40tLSQv7PP/+8fWpk66qTokXEJskVX3v3krlhRtRONC6nu4ZVSeQ462F0wI3JGoyxQXp6etavX495oD0akm0/ajnjj8bGW44DRXbdddex64534NgZC4er4w0NDZMmTYoeAsvBOjrOJhlAHYMT/rRVkS0RPQZWYZyk8bQzr/1FCS2Rt6IjkLccx5Hks2fPxvLV3//93wdBYEdTiwANOPpA6tVXX+XhIehEamtrM5mMd3Wcb/zEP8yKv8t3p/qU445oiPpHBpE1O/raUd+2Q8dtO74+T1YJwxDLXc43LJwmbZnTTXtsF+aMr9Z+R6Bw4EcPi0isHEylUhs3bsTKPR/zIULnZ9Qk7xZzpwTxPi7o0RhExQepnDb09vZSVXBYYh0LwzD5dzqRX0dyMQvJHYwH6I4cOTJhwgRbGTCh9UZoOVvhYpeTubDqjaHPi9lsFmtpZOgEseMK+XNIDoLAeSZOwhZ7+P99gyPK035tdOvWrUzdFh/mCfaK11pWde+DC3vXKgmbFzYEm9awYcN+97vf0bAwDO2nkfiRPxuE8SAUnz84vYpN+pe//GUYhvQZBIHzruHWrVtZbVgQ1iq6LdJc7+aeOHGCe0WiX5WyO7OhsG3unFxs3rzZa5itORa4nSc7oBjkiiuu4FSks7MTR0hhgXzevHlIrqamhpM35J3BnbpHMnCwitpO2PFzCX6iZ7BkkChqhdNd49bFluMVFRXY8Gkfc91222329QZW2qjlhIasJcGLIkvis084OPPATuRoTxiG+PKOrVecMca3JhtJcjfytXTpUjuczZ49m20HWwS5AoKVl1zGJ09XPocAgf7I8TAMu7u7H374YXSO0bVbcmEDZq9tHWjVbW1t1dXV8+fP/+abb7xynNrOhs3XzR4kKq+dzSpsNshF1D+uI2t2UMGoHz2UkJN+zO9tB0TFFs0ODc5ms9gsa+c8aPPxvQlViLNXHgeiI0XnE6ewELcYOYzEIGHlILyh9FlG2PbAn5aPVWbOdVYY67A6gMbAA+OvrKzcsmXLE088UVVVxQ2mFOuVlZXcFkLUTlQ2Rbjp06kJUZ/xVxgPx9fTp0/PmjXLlnXMxhW7KQWTMX5fENKWaz/xZuS6G4MXQazEITTbop1CtP5Ze22hOzzx0BY07Cm8du8HGos11RlWYSqr+vkTG6Fuba7tXWuYNy82LRYcY/MKUBvEYcLnD87Z81zl5eyCPm2lRbqs7fRMexyHRcrZguPHxjZ//ny7xhyGIV8n4KN8mzsHiI2KNYRaByVrgduZAPUfVCB3mziV5OOPP3b2uFdWVkZrfq665+SdNcG7O8vxfPF+smewXUEStx07ouZxtnPffffxeVrUm3PFa0xVVZV9sxZB2F5smXpji7cTQVBkSXza1J0aiFuYQzqTWBqGF9adgEgdlbYfe1T48ByOnTt3Eji6CNsc8C0LVuwDBw5cccUV2FCExqWlcRZWiTv6Kcez2ezGjRux4c/7ciewogHjVU5sm54/f35jYyNe5USrxgCwfPlyVE1nPAvDsM/WgkW++H3b3OPl7X3YVKJPtfKV4zFdFWjYDiiaHOWLjefMmTP4LuPSpUsxfGLcddq8U5U59iTp6KN+GDmIpVKpN998E0MjtudyS/QNN9zAzwAhdxynndKkSc40gDMW67DTBhqDPDKeO++88/Dhw9XV1UEQcKkPEzxnOZbl7kTlQMv3M0DR4LzCFO1I4Ly8aFe+GRAOZ9vxVRf+WEzOw3onbJKfVmZ5mViJQw8ckqPr0Na/rb0sLLYymMfrzFTUgepkTbUwmU0blU06mpC9681LfFo2j2RigzgVnnUgmjVeQTz06VDivmH4Z6LMu3XEc4BPtk17hh0jid61uXPgW8/WMEspF3Bm33E42c9ms1z3gc977rnnf//3f2kwHLlSdLyRTyHIce6q5zkEnKRFjze1B/M5mbI/Mam78cYbT506Za/HuFHx7BNs72me9tmpLVMnZsTGpV/nrv2JIrOjob0bdaO1OjUQK4N33nkn3lfp7u5euXLlvffey+2gYRhC/joljtRRaW01dmpjwp+21aOO8QgBZMQO9JiUooywvDXA55xRVrpSpAT6I8d7enqee+45bOK8//77Icrty52WBXcRoNLX19d3d3fv3LmTWwvwlHbr1q3o923NtvHA3dnZ+eijj77yyivcE+nVr9GAvBJzsgp2sVdXV9sndPnK8Wgn6/S2tgOyrZQWoj07XR6/kPrRRx8xy3YIZHA6OPYk7FMcb4wcPSzF9/XXX48BMpVKvfTSS+Xl5RUVFVz0RUfMDs4pzX6bRGOczTarV6+2G0+x1fjDDz/Exkfbd1Pu2KjIyjro01EG1k8SN+OxZuCNK37CesWKFc7ypI3Zfr7elo59TmL95+umhV4mVuLQg1fCIl3r39ZeFrrDk9ejX8LirAxvHcQoQiTNqLx7FXLd9eYlPi27/MxleBvEqfAk7DyhYgYXLVq0bdu2+Ekg63Ofq+M2p44gYN1g2/TKcbvdBRusbe6cmmyjYg2JWR23wHNtGrZneYVhaJ8IoQmUlZVt3LiR2Ymve463ob1ZhYc55vVWCaqoHZUcaPzJhxv2PQHetT2zrQzWg3Wju8hVDWwDgTu6dxyx7d69e/jw4TjN6dy5cwsXLnSyv2HDhiAInLcFoDpgp3e9r6amxnmLLGbVz66OYz8bGjUsxFMLth38vOKKK954440xY8Z4n/ZYUHKXDoG85XhbW9u0adPwrg9eln/rrbegfryfAdu+fftll1322muvUY7/8z//cxAE69evx7c87r77bpyzhn6f41k2m42+64YXnpw3xzEIRb+qgM1bHR0dLE5sI7vtttv+/Oc/8+K2bdswBuCplnO3QOR4Nptdu3btJ598ArOR5VzdovWDDy7ary7bVWdnlTpms8p5KYCXz+ov/OHow+PHj//qV7/avXs3xzl0cBynWZqOSVZcJnHb/h39L75DdOTIEXyIDrbh5XT0v0EQ3H777d9++y2SpjDKJVPgLV4Y0U8SB1NkR2xD7dix4+mnn+ak1N6y7s8//xxnGZHS2LFjefao9dkPN48M9w7GVl6Tv1VUTuFa/145PmzYsPfff592spjO16VcOyvgOUYRwoOVoTbp6F2bkD1QknmxaVVVVeF1RsSD6TpFIY+Et0Gc3oN7zZ28I0L7nz6jNOx+bhaEDUu33UuzcOFCPkCnhzAMjx8/fu211yIXjrVhGNq0wMrmzqnJbObOPMHWBAucu8iCIIgmbY2E205Hx174g9kTJkywKybOBMCm6MTJJumIM8fbxf4JM6IVFY3LgQxjgNrbTq212EWNDznbFWLrx3HDmD5j5mCNzzB7qxYblBWjTnL8aSsJO7c+HQ4cHEJl2ylGh3nz5sFCnlJl307hela0CGAeFLN3+SBXEATECzlOQLQgazmGS4xZ8SsyxCVHKRDIQ453dXW98MILOCBi0qRJ+Dg8GO3evRsnZ9XU1PCTEGEY2tZCOY5DGKqqqj7++GMrr1FrOS4eOXJk3Lhx//qv/2qLAQddOZ8ssYNxtD3bjgbjgfPcivHDQmc/Zb5yPKa5ore19iRfHaeRcCDLMWmxx4FuzmQyjMGOr6SNu1ZsceBHf11dXT1r1ix71i/7F3sSNjpijtNO/Cwp5/NDzlY8/LSfK6Ixdi2cfS4PlMDxZ3zlyw66HInjoV0yOc7iiHEcPnx48uTJ0Sp97733OnIkJpKYW3x90M5b6N+Ol+Rva4hTuNa/hcxCd15S5DnQmDjxABMY0Nvby4/R2hrLWkc7bVX3ro5bw/hcOJvNPv/882TLvNi0sH+aD+LsGYLcGWUXBe2BJDDPLjbzTBJa3t3dzU109n1N+952S0sL37x0VC/joYNqLAiC8vLydevWcUWDJ6tQoCDvzz//PP3Yk1V4WqUF4sBnM3cMs8Cdg/M5AywrK2toaHAeDZ06dYqn8mez2RUrVrCA1l/440+ebY+8x6RIOEP+oEPkdOXKlaD0s5/9rM/ZPrs7OyqRWNSBtuxd0GWDct7wjkaCKyiyhOlyq4y3BtqZJwYjCnS0iKhJ8QMoQo0dO/bEiRO0P1eQb7/9li0IAsMxEhdtbHxDwz7n/PLLL1977TV7+nhnZ2cmk+EpFLREjqFKIJEc7+rqevHFF/Ghu4qKihUrVnCIIhd+3CGVSvGLepiqorVQjmM5s7y8PJ1OL1myJAgCe5wZx0X4t4qK34BwJpRoJ7n2jtv3fqAAcu1sg9Z3lpyTyPHe3t729naYke+rnM5MmtrCChpCpiP6XQPeooMfsHS+pmTHV9JGKPvFbC6uQMimUqndu3djDoacstPhGW1XT9y3EwAADdRJREFUXXUVlqs5TjvxI2B02zFttg5rJ+UgNu1gvBkxYgQ2AtkzBKdOncp3v7giYtc148FyfHK2nlvDEro5ASCohAHDMPziiy/sZ1CoQuioqKj4h3/4B9t3J4+cPllMLDjeclYcyb8fctwu2eI47ZkzZx44cMA5aXvkyJGPP/54Q0PDhg0bHnroodGjR3OotjXBC5P1yivHre4PgmDcuHELFiyYNGkSYdoKadOCB/ivra21/gnEnvcMD6NHj54/f/7ChQs7L/zxbBBMjHHS9rp16+bPn19ZWcl47LGPqHvRw84d1WsLC25KIpqKM8Wdc8ed9yORQedgdfaxFogDn/XHMczurgHbGTNmvP3222EYOknffvvtL730UmNj44oVK2pra0eOHLlv3z7kxW5TQTdiLXG+AB2TIimxGkS7XPpJ4sCrKd4mkyQ4e5hoR4TG5UBGnEDNFhGTkH2kMHny5E8++cTOec6ePbt58+aHH37Y6d6TxByGIQ+DT6VSzc3NlKHd3d0vvPACtq2ySscYye4lYbpeOX769Ok77riDpYkT2FpaWtDx4s1+jOnOnJAHbUWLADajP3FC4WI0SDqdrqqq2r59exiGqGPO03uMj1wE5Ie6vve979kvitgTV7gfGIcF79ixIx6m7g4NAjnlOLag4KgvHjE7Z86cmGW5o0eP3nLLLVxuQSi2FnQoaKvnzp17//33P/roo1GjRnGdCb0tBRxqJ9s2Dxj53ve+V15evnHjRvYyudpJtISwBOUIbng7ceLEhAkTop1sn3L82LFjc+bMeeKJJ2DGRdo77uQFPU60a3C8eX/aUY20vT5xkXKcS+zIKYYN+8YhY+M4zSuICgGDIOj36nj0aBcqD8fBehWGoV0YA7Tjx497l+TxjVhE5ewdjPrn0qaXXj/keG9v765du6KfNw+CYNasWT/84Q+dPJaXl9fV1e3atYvjoteSXBf5VCG6QYLjJVJkM+yHHOcsmsazT7DSgXfp4FBta6xXrLBeeeW4o/sZ/5133slj3VhRbVrDhw+nB4YKgoAfjyTYzZs349EzvTFC5+BweoCDYHmkqeMhCIKZM2diN6Cjepm6dcR8BNSi27x5s53EOok+8sgjXFi1QGwMMe+Y2iCMmZ2VfcjAu3DYioGX17HMz31BljOe1CHv8SnCDzdHDfBQOTzxGMhHW3L13oMix3ES8dy5c8mWh9jw+BpWTs4N2NZsXfK6bfEhZnsUkv2eqzc4Lw58dRxSmy81Mb9wTJgw4YMPPhhzYXM253hMHUXg3VSza9euqqoqVkUGQSfDaozrPC4W11HHnn322aNHj/7oRz9atGjRggUL+OVETN1feeUVfvTKnkaKZQu8kYIPA910000/+clPKisr7VhGe+QYegT8chyd9bBhwy677LJUKvXhhx+ePn36q6++6jP/PT09VAZNTU1lZWV8qmjleBiG/AwyP8OGLpU9BWonaz96gZqamgMHDuBbFYsXL8aTTW87iZqKfQ7RZgafiIT7Hxg8Xo5XVlZedtllQRA89dRTfZqB3tZ2fFRsTlfiVRU0CSqqz92o9O847NBF2o4f+xNG8qM/jipdvXo1V6N51GCfcjya3/grVC32czNOkBEX/nhxyZIlzz33HF4Dskuh6ILt020GydfBymlx0c3CdUQMPVhHJpP5+c9/7hV/I0eOxOSzp6fnxRdf9KqoioqKuXPn2o3ONvIYN/cKR+WFRUT+/ZDjYRi+99579iOO9rDCrq6uJUuWUG6yCMaPH//mm2/CcltjvTDR9BDWWyhnzpyxAgWvdrW0tHBfPhuCk9aHH37413/917SqvLz8iSeeiH7BNFo0XAwLw/Drr79esGABx2DGNnXqVPvsLgoKn4vau3cv+bAgYsq0t7e3oaEhWpdmz57dYV6kOXz4cHTiN27cuNdff519uLMVx4HPZh6dJ/zxj3909llZ6fPBBx84d3EwwKJFi/7nf/7HWeO3ksWexx8EgT1fKD5Fu6GO3VQMw5hbSU61iglOBRx9nLt27dqqC3/86hw7W5xLZseO+CR6e3vfeuutKOQgCCZPnrx9+3YuZqGbSh5zGIaHDx+eOnUqqzEco0ePXr16NWdx8eZxtp883ehcBavOeEY6c+bMRYsW4UnLwYMHf/KTn0ybNu3mm28OgoAKhCahMkSVQDabbWhoQFvj0yGG8o7vWOjB4aSIFh/2sq9JcALf29uL/VeVlZW//e1vJ0+ebE/WWr58OT+gtnDhQq4MLl++PGoqrZJjKBHwyHEI36qqql27dnERZfr06evWrdu7d6893D7qbmtre+eddxobGz/++OPe3t49e/YcO3YMnfvvfvc7LDcCH5Y57QcdMBCmUqk//OEPR44cqampYS1sbm5GP7V37148EsIXVcrLy++4445bb70VgpidV9SxZ88ePGjjuGtLEQ9GmZy9lUuOIztBEIwcObKhoaG3t9fbXG1U+/fvr6qqsh0QukJ76HIqlcIxglQVra2tr7/++s6dO0G7paUFn0GN7oezacW4reDw0nDCUlY6/a/zk9v17LKZE7+VTU7w+J9WhWzevPm+++5bt27dO++809bWduLECYwBdhlyzJgxR48ejSZHIWi1ZnzSMXdZRg4x/CQ3R8R4PTsP8Zko55wM1dbWdu+999IDHXbDMT336eDStfP0v8+A+Xro7e3NZDLvvvtuS0sLH5QzEuyS2rt3L+r5Rdou2dnZefDCX9QAWmJbBwoum822t7e///77LS0t8YadPXu2paXl3XffPX78eFSX4GH6zp079+7dy0rLdOkAil27dh07diwaCb316YDZBw8ejEd69uzZtrY2lIsV633G36cHGLBz586DBw96Y+7s7Gxtbd22bdv5Pi3X4Xp9pmI9xKTIz9xyT7wNmNyNbW/ekSJ5JOwZ2HgTOuzYkTA5lO8777xz8ODBmFqXMDbrrbOzs6Wl5f33389kMt7ytZ6j7v71wEn6Uiz2QfiyV9y/fz/EemNj49/93d/Zg3HDMMRjSc4xvMfEYRpWU1Nz5MgRKp+XX365vLwcp7GhjmFdA1UR3lC3v/nmG5R7VVUVnvZAdVRUVKxbt+748eO33XYbzrTA58bwckV3d/cDDzzAYSuKUVeGEgGPHF+/fv2wYcP4BWPvVLjP7oPbdrlj7/wKCk8gwvMg5/tB3I7CyGfNmtXV1YVT4ew8EqeN/vrXv46uADGs41i1atVPf/rT8+9acTGepdjW1gZxz1O9eQsrGd4uAG/MTJs2jbt3vHKcPS9NtV8rSPIqpwVoMxWdvluzY9xWcDhy2RuKWbCp011ZWTlv3rzy8nL7Pg2XzZz4qY/RhfEISK/DPgO1ctxrZBiGW7ZswesN51faVq5caU9cobX8UHn/BgPGA8cgyvEwDO0+nPLy8kcffZS7g6JZ/uyzz6wod5pS1H/MFX6K3H4QO8b/0L5lW4e34Q/t7A/J3NkyRc/Q72zi9C2nW8s3NvSo0dXx6CoSr+S7Op6vSZfeP3rggR906LV81apV2OZEGeO8XcAxIgzD3/zmN3zkOG7cuB07dvDRgY08esgVh4NHHnnk9OnTf/M3f5Prgz7nj3v+2c9+hrdH9u/fz2i53Imo+Ijy0KFDOBsD1zlsMaAcQ5KAR463t7f/53/+p1MjOzs79+7dy94h3vHWW2/xeW5HR8eSJUtmXvjbtGkTVspbW1v/4i/+Yu3atQ7T7u7u5uZmRP5f//VfWBzatGnTyJEj33jjDcckhO3o6GhpaXnzzTdjTNqyZcvp06dbW1vvv//+6Ntv+DLL9OnTnQ8vI/5cq+Nnzpw5/z1I+0qrV46vWbOGWnP8+PG//vWvbZAnn3zy5ptv/vTTTy2Hbdu2LVq0iI0WALHpoq6u7r777nvsscf27NnjpWHjyeW2g1OScWXPnj3xbNvb23fs2NHa2soUP/3005tvvjmVSs2dO5c1ITTfS0+SrrUziRzHroAZM2ZQVra2tv7VX/1VKpUaP358Op1+7bXXLHxae5EcnMYkVHV412L06NErVqyI1lKvkZlMZvny5d///vejk0yvf+9F+ynygcTjjbzoLtpal7Dgii6PpWYwDxthz9BvAlB1A9zu8uSTT+JVyORmoEd98sknkwcpcJ+Q48nX+6ObVWIyCIGxcuVKjpLd3d2vvPIKhtFnnnnmwIEDvHXy5Mlbbrll/PjxDQ0N8c+jMpnMyy+/jEjw/x//8R937twJVbNp06bZs2fnGmJ6enpee+015/wo7Pz50Y9+NHz48EmTJuEgBOTrT3/608MPP3zrrbe+9NJLueKMIaBbxUjAI8cvTTb+7//+j+0hPsVsNmslXbzn/t3lt4r6F7y4QkWfo10y+3FyUyaTSfJs2toZs7vAMb6oi9K+euHk66L+5D6fgayyX1QLL1nkkuOXDPWlSYgntHDfwkDSxSvg8e9wDyR+hR0sAskFxmCl6P1SymBFrnhKgcB3JsdLAa7yKAIiUFwEJMeLq7xkrQiIgAgMDQKS40OjHJULERCBQSAgOT4IEBWFCIiACIhAngQkx/MEJu8iIAIiIAIiIAIiIAIiMHgEJMcHj6ViEgEREAEREAEREAEREIE8CUiO5wlM3kVABERABERABERABERg8AhIjg8eS8UkAiIgAiIgAiIgAiIgAnkSkBzPE5i8i4AIiIAIiIAIiIAIiMDgEZAcHzyWikkEREAEREAEREAEREAE8iTw/wAZ7T5B9cA9igAAAABJRU5ErkJggg==;" vertex="1" parent="1">
          <mxGeometry x="540" y="300" width="114.21" height="60" as="geometry" />
        </mxCell>
        <mxCell id="-nMGQMGpuMibSi9UWgEI-11" style="edgeStyle=orthogonalEdgeStyle;rounded=0;orthogonalLoop=1;jettySize=auto;html=1;exitX=1;exitY=0.5;exitDx=0;exitDy=0;entryX=-0.012;entryY=0.506;entryDx=0;entryDy=0;entryPerimeter=0;" edge="1" parent="1" source="-nMGQMGpuMibSi9UWgEI-9" target="-nMGQMGpuMibSi9UWgEI-10">
          <mxGeometry relative="1" as="geometry" />
        </mxCell>
        <mxCell id="-nMGQMGpuMibSi9UWgEI-12" value="func1前半部分" style="rounded=0;whiteSpace=wrap;html=1;" vertex="1" parent="1">
          <mxGeometry x="220" width="120" height="60" as="geometry" />
        </mxCell>
        <mxCell id="-nMGQMGpuMibSi9UWgEI-13" value="func1后半部分" style="rounded=0;whiteSpace=wrap;html=1;" vertex="1" parent="1">
          <mxGeometry x="220" y="210" width="120" height="60" as="geometry" />
        </mxCell>
        <mxCell id="-nMGQMGpuMibSi9UWgEI-14" value="func2" style="rounded=0;whiteSpace=wrap;html=1;" vertex="1" parent="1">
          <mxGeometry x="410" y="60" width="110" height="150" as="geometry" />
        </mxCell>
        <mxCell id="-nMGQMGpuMibSi9UWgEI-15" value="" style="endArrow=classic;html=1;rounded=0;exitX=1;exitY=1;exitDx=0;exitDy=0;entryX=0;entryY=0;entryDx=0;entryDy=0;" edge="1" source="-nMGQMGpuMibSi9UWgEI-12" target="-nMGQMGpuMibSi9UWgEI-14" parent="1">
          <mxGeometry width="50" height="50" relative="1" as="geometry">
            <mxPoint x="490" y="70" as="sourcePoint" />
            <mxPoint x="540" y="20" as="targetPoint" />
          </mxGeometry>
        </mxCell>
        <mxCell id="-nMGQMGpuMibSi9UWgEI-16" value="调用开始" style="edgeLabel;html=1;align=center;verticalAlign=middle;resizable=0;points=[];" vertex="1" connectable="0" parent="-nMGQMGpuMibSi9UWgEI-15">
          <mxGeometry x="-0.0552" relative="1" as="geometry">
            <mxPoint as="offset" />
          </mxGeometry>
        </mxCell>
        <mxCell id="-nMGQMGpuMibSi9UWgEI-17" value="" style="endArrow=classic;html=1;rounded=0;exitX=0;exitY=1;exitDx=0;exitDy=0;entryX=1;entryY=0;entryDx=0;entryDy=0;" edge="1" source="-nMGQMGpuMibSi9UWgEI-14" target="-nMGQMGpuMibSi9UWgEI-13" parent="1">
          <mxGeometry width="50" height="50" relative="1" as="geometry">
            <mxPoint x="490" y="70" as="sourcePoint" />
            <mxPoint x="540" y="20" as="targetPoint" />
          </mxGeometry>
        </mxCell>
        <mxCell id="-nMGQMGpuMibSi9UWgEI-18" value="调用结束" style="edgeLabel;html=1;align=center;verticalAlign=middle;resizable=0;points=[];" vertex="1" connectable="0" parent="-nMGQMGpuMibSi9UWgEI-17">
          <mxGeometry x="0.0463" y="1" relative="1" as="geometry">
            <mxPoint as="offset" />
          </mxGeometry>
        </mxCell>
        <mxCell id="-nMGQMGpuMibSi9UWgEI-21" value="恢复caller-saved" style="rounded=0;whiteSpace=wrap;html=1;" vertex="1" parent="1">
          <mxGeometry x="220" y="210" width="120" height="20" as="geometry" />
        </mxCell>
        <mxCell id="-nMGQMGpuMibSi9UWgEI-22" value="保存callee-saved" style="rounded=0;whiteSpace=wrap;html=1;" vertex="1" parent="1">
          <mxGeometry x="410" y="60" width="110" height="20" as="geometry" />
        </mxCell>
        <mxCell id="-nMGQMGpuMibSi9UWgEI-23" value="恢复callee-saved" style="rounded=0;whiteSpace=wrap;html=1;" vertex="1" parent="1">
          <mxGeometry x="410" y="190" width="110" height="20" as="geometry" />
        </mxCell>
        <mxCell id="-nMGQMGpuMibSi9UWgEI-24" value="随意使用caller-saved" style="text;html=1;align=center;verticalAlign=middle;whiteSpace=wrap;rounded=0;" vertex="1" parent="1">
          <mxGeometry x="425" y="90" width="80" height="30" as="geometry" />
        </mxCell>
        <mxCell id="-nMGQMGpuMibSi9UWgEI-25" value="保存caller-saved" style="rounded=0;whiteSpace=wrap;html=1;" vertex="1" parent="1">
          <mxGeometry x="220" y="40" width="120" height="20" as="geometry" />
        </mxCell>
        <mxCell id="-nMGQMGpuMibSi9UWgEI-26" value="保存callee-saved" style="rounded=0;whiteSpace=wrap;html=1;" vertex="1" parent="1">
          <mxGeometry x="220" width="120" height="20" as="geometry" />
        </mxCell>
        <mxCell id="-nMGQMGpuMibSi9UWgEI-27" value="恢复callee-saved" style="rounded=0;whiteSpace=wrap;html=1;" vertex="1" parent="1">
          <mxGeometry x="220" y="250" width="120" height="20" as="geometry" />
        </mxCell>
      </root>
    </mxGraphModel>
  </diagram>
</mxfile>
